<svg width="24" height="25" fill="none" xmlns="http://www.w3.org/2000/svg"><path d="M7.813 17.676c-.301-.092-.703-.055-.901.083-.2.138-.118.324.18.416.258.08.406.207.406.35 0 .144-.148.272-.406.351-.617.19-.985.508-.985.85 0 .343.368.66.985.85.11.035.236.051.36.051.21 0 .416-.047.54-.134.2-.138.12-.324-.18-.416-.258-.08-.406-.207-.406-.35 0-.144.148-.272.407-.351.616-.19.984-.508.984-.85 0-.343-.368-.66-.984-.85zm4.547 0c-.299-.092-.702-.055-.9.083-.2.138-.119.324.18.416.258.08.406.207.406.35 0 .144-.148.272-.406.351-.617.19-.985.508-.985.85 0 .343.368.66.985.85.11.035.236.051.36.051.21 0 .416-.047.54-.134.2-.138.12-.324-.18-.416-.258-.08-.406-.207-.406-.35 0-.144.148-.272.406-.351.617-.19.985-.508.985-.85 0-.343-.368-.66-.985-.85zm4.548 0c-.3-.092-.703-.055-.9.083-.2.138-.119.324.18.416.258.08.405.207.405.35 0 .144-.147.272-.406.351-.616.19-.984.508-.984.85 0 .343.368.66.984.85.111.035.236.051.36.051.21 0 .416-.047.541-.134.2-.138.119-.324-.18-.416-.258-.08-.406-.207-.406-.35 0-.144.148-.272.406-.351.617-.19.985-.508.985-.85 0-.343-.368-.66-.985-.85zM6.015 11.319l-.322 1.397h12.614l-.322-1.397H6.015z" fill="#C62306"/><path d="M21.066 4.33H2.934C1.867 4.33 1 5.272 1 6.428v8.386c0 1.156.867 2.096 1.934 2.096h.463l1.49-6.458c.071-.312.329-.53.625-.53h12.976c.296 0 .553.219.625.53l1.49 6.458h.463c1.067 0 1.934-.94 1.934-2.096V6.427c0-1.156-.867-2.096-1.934-2.096zM8.09 8.525H6.8c-.355 0-.644-.313-.644-.7 0-.386.289-.698.645-.698H8.09c.356 0 .644.312.644.699 0 .386-.288.699-.644.699zm3.91 0h-1.29c-.355 0-.644-.313-.644-.7 0-.386.289-.698.645-.698H12c.356 0 .645.312.645.699 0 .386-.289.699-.645.699zm2.578 0c-.356 0-.644-.313-.644-.7 0-.385.288-.698.644-.698.356 0 .645.313.645.699 0 .386-.289.699-.645.699zm2.621 0c-.356 0-.644-.313-.644-.7 0-.385.288-.698.644-.698.356 0 .645.313.645.699 0 .386-.289.699-.645.699z" fill="#C62306"/><path d="M5.37 14.114l-.644 2.795h14.548l-.645-2.795H5.372z" fill="#C62306"/></svg>