<svg width="24" height="25" fill="none" xmlns="http://www.w3.org/2000/svg"><path d="M22.359 3.48H1.635A.64.64 0 001 4.123V5.63c0 1.067.854 1.936 1.904 1.936H21.09c1.05 0 1.903-.869 1.903-1.936V4.124a.64.64 0 00-.634-.645zM17.52 9.524a.627.627 0 00-.897 0l-1.268 1.291a.653.653 0 000 .913.627.627 0 00.897 0l1.269-1.291a.653.653 0 000-.913zm0 2.582a.627.627 0 00-.896 0l-.846.86a.653.653 0 000 .913.627.627 0 00.897 0l.846-.86a.653.653 0 000-.913zm-8.881-1.291L7.37 9.525a.627.627 0 00-.897 0 .653.653 0 000 .912l1.269 1.29a.627.627 0 00.897 0 .653.653 0 000-.912zm-.423 2.151l-.846-.86a.627.627 0 00-.897 0 .653.653 0 000 .913l.846.86a.626.626 0 00.897 0 .653.653 0 000-.913zM9.67 15.18v1.569l4.653-2.367v-1.569L9.671 15.18z" fill="#C62306"/><path d="M7.979 6.585v1.506a.64.64 0 00.634.646h1.058v1.29h4.652v-1.29h1.057a.64.64 0 00.635-.646V6.585H7.979zm1.691 4.733v2.398l4.653-2.366v-.032H9.671zm.024 6.862a.648.648 0 00.137.257l1.692 1.936a.63.63 0 00.948 0l1.692-1.936a.652.652 0 00.16-.429v-2.183l-4.63 2.355zm12.672-3.164H15.81a.64.64 0 00-.635.646v3.442h7.19A.64.64 0 0023 18.46v-2.797a.64.64 0 00-.634-.646zm-20.731 0H8.19a.64.64 0 01.635.646v3.442h-7.19A.64.64 0 011 18.46v-2.797a.64.64 0 01.635-.646z" fill="#C62306"/></svg>