<svg width="24" height="25" fill="none" xmlns="http://www.w3.org/2000/svg"><path d="M1 6.771c0-.45.365-.815.815-.815h1.24c.45 0 .815.365.815.815V8.13c0 .45-.365.815-.815.815h-1.24A.815.815 0 011 8.129V6.771zm4.783 0c0-.45.364-.815.814-.815h1.24c.45 0 .815.365.815.815V8.13c0 .45-.365.815-.815.815h-1.24a.815.815 0 01-.814-.815V6.771zm9.565 0c0-.45.365-.815.815-.815h1.24c.45 0 .814.365.814.815V8.13c0 .45-.364.815-.814.815h-1.24a.815.815 0 01-.815-.815V6.771zm4.782 0c0-.45.365-.815.815-.815h1.24c.45 0 .815.365.815.815V8.13c0 .45-.365.815-.815.815h-1.24a.815.815 0 01-.815-.815V6.771zM1 11.75c0-.45.365-.814.815-.814h1.24c.45 0 .815.364.815.815v1.358c0 .45-.365.814-.815.814h-1.24A.815.815 0 011 13.11v-1.36zm4.783 0c0-.45.364-.814.814-.814h1.24c.45 0 .815.364.815.815v1.358c0 .45-.365.814-.815.814h-1.24a.815.815 0 01-.814-.814V11.75zm4.782 0c0-.45.365-.814.815-.814h1.24c.45 0 .815.364.815.815v1.358c0 .45-.365.814-.815.814h-1.24a.815.815 0 01-.815-.814V11.75zm4.783 0c0-.45.365-.814.815-.814h1.24c.45 0 .814.364.814.815v1.358c0 .45-.364.814-.814.814h-1.24a.815.815 0 01-.815-.814V11.75zm4.782 0c0-.45.365-.814.815-.814h1.24c.45 0 .815.364.815.815v1.358c0 .45-.365.814-.815.814h-1.24a.815.815 0 01-.815-.814V11.75zM5.783 16.73c0-.45.364-.815.814-.815h1.24c.45 0 .815.365.815.815v1.358c0 .45-.365.815-.815.815h-1.24a.815.815 0 01-.814-.815V16.73zm4.782 0c0-.45.365-.815.815-.815h1.24c.45 0 .815.365.815.815v1.358c0 .45-.365.815-.815.815h-1.24a.815.815 0 01-.815-.815V16.73zm9.565 0c0-.45.365-.815.815-.815h1.24c.45 0 .815.365.815.815v1.358c0 .45-.365.815-.815.815h-1.24a.815.815 0 01-.815-.815V16.73z" fill="#C62306"/></svg>