<svg width="32" height="33" fill="none" xmlns="http://www.w3.org/2000/svg"><path fill-rule="evenodd" clip-rule="evenodd" d="M4 1.695h24.281v23.233c0 2.503-1.582 4.276-4.635 4.276h-2.862c-2.206 0-3.596.78-4.635 1.82-1.04-1.04-2.446-1.82-4.636-1.82H8.652C5.582 29.204 4 27.43 4 24.928V1.695z" fill="#C62306"/><path fill-rule="evenodd" clip-rule="evenodd" d="M9.292 22.668c.192-.7.607-1.073 1.31-1.187.672-.114 1.423-.504 2.238-.894.352-.26.384-.146.144.358l-.383.455c-.208.227-.256.488.032.715.383.195.56.39.495.553-.431-.114-.815-.065-1.15.26-.24-.065-.528-.033-.928.163-.208-.114-.432-.13-.72-.05-.063-.178-.27-.227-.59-.162a1.052 1.052 0 00-.448-.211zm4.7 0c-.416-.44-.464-.813.015-1.154.272-.196.656-.618 1.135-1.269.32-.016.608-.097.927-.146 1.295-.163 2.51-.439 3.485-.992.192-.065.32-.016.4.114l.767 1.024-.224.082.576.439c-.096.081-.032.146.096.195-.064.097-.016.211.08.195.048.146.143.358-.144.065-.192-.098-.208 0-.064.293l.303.455c.016.211.096.39.272.536l.256.52c0 .082.048.163.064.228.032.195.08.31.24.325-.16.31-.368.602-.72.797-.671.374-1.215.228-1.167-.683.032-.488.128-.894.144-1.398.192-.78.016-1.187-.655-1.236-.352.017-.607.017-.8.147-.191.13-.447.08-.799-.13-.687-.52-1.214-.813-1.55-.813.335.39.431.78.16 1.154.271.13.271.26-.016.39-.672.016-1.423-.114-2.206-.341-.256-.049-.304 0-.128.146.575.228.88.585.88 1.073a7.636 7.636 0 00-.848.065c-.144.13-.32.114-.48-.081zm6.537 3.772c-.192.097-.24.227-.064.341.128.082.192.098.224.033.224-.033-.096-.163-.16-.374zm-6.026-.504c-.128.097-.192.195-.112.341l.256.228c.096-.098.08-.228-.032-.325a.43.43 0 01-.112-.244zM11.562 24.7c.192.081.192.26-.048.358-.176-.065-.16-.212.048-.358zm-3.373-6.958c.831.975.975 2.064.304 3.349-.256.618-.224 1.024.111 1.203.096-.211.176-.537.224-.878.064-.52.4-.471.847-.927.48-.488.336-1.008.288-1.82-.08-1.756.272-2.78.783-3.35-1.294-.358-2.078.618-2.557 2.423zM9.02 3.223c-.144.016-.208.13-.192.31l1.023 1.479c.032.065.096.146.096.195-.08.195-.112.325.064.504l.352.341c.032.244.08.44.16.52-.08.163.016.31.16.472.031.049.047.097.095.146l.064.504c-.48.407-.719.716-.767.894-.016.098-.048.195.016.244l.671-.065c.064.033.128.049.144.098.096.244-.032.634-.4.683-.847.21-1.454.504-1.214 1.073.303.406.144.78-.384 1.105a.498.498 0 00-.16.472c-.144.13-.271.325-.367.552-.08.228-.08.342.08.31 1.166-.39 2.317-.57 3.149.13.4.34.335.52.959.552-.064.277 0 .423.223.472l.033.309c-.256.065-.544.065-.8.13-.287.065-.56.195-.815.195-.224-.18-.48-.277-.671-.407-1.055-.666-1.95-.699-2.718.212-.4.487-.767 1.138-1.07 2.146-.065.178-.193.244-.48.081-.56-.455-.656-.862-.384-1.138.384-.374.543-.146.336.049l.016.048c.303 0 .415.212.527.44.256-.667.112-1.122-.24-1.48l-.08-.016.032.569c-.607-.13-.943.357-.99.796-.033.44.16.813.719 1.155.303.097.4.471.16.829-.592.894-.512 1.837.032 3.056l.063-.032c.112-1.333.384-2.016.832-2.146a.816.816 0 00.383-.293c.128-.195.192-.179.288.033.24.569.224 1.105-.112 1.642-.767 1.252-.8 2.21.288 2.975l.032.098-.288.373c-.096.147-.016.342.224.553.192.228.272.586.336 1.04-.096.147-.096.31-.048.521.16.228.56.358 1.103.309.064-.016.048-.065.048-.114.047-.26-.128-.439-.304-.764-.544-.488-.656-.96-.48-1.415l.08-.13c.432.147.96.326 1.455.39-.208.44-.192.976 0 1.285.351.602.72.894 1.423.83.927-.082 1.39-.863 1.055-1.936.335-.195.559-.178.67.033-.015.488.193.325.209.797-.56.487-.768.91-.16 1.187.303.308.144.439-.272.455-.431-.098-.735-.082-.8.276-.383.016-.51.26-.495.634.112-.276.336-.309.448-.228.208-.016.431.05.607-.032.176-.081.368-.081.592.016.112 0 .192.05.255.147.272.292.24-.033.848.341.144.016.4 0 .447.244l.064-.228c.048-.081.016-.178-.064-.26-.191-.228.112-.244.656-.146.287.13.56.195.767.146.24-.244.304-.097.352.228.175-.488.064-.732-.416-.764.08-.26.112.13.288-.195.144-.066.303 0 .447.146.032-.228-.096-.374-.4-.44-.063-.194-.223-.21-.43-.015-.88-.228-.96-.78-.48-.878.271-.065.367.211.575.292.16.065.24.033.464.065.24.017.463.065.607.163l.176.065c.096-.065.192-.065.303.049.128.195.256.211.368.065.352-.277.863-.277.831-.098-.016.26.032.358.128.325.08.017.112.114.112.31-.335-.017-.56.048-.56.292-.303.098-.303.309-.16.601-.031-.569.432-.097.896-.406l.32-.033c.032.163.192.228.48.228.095-.049.271-.049.367-.065.56-.146 1.007-.114 1.343.358a.435.435 0 00-.032-.44c.383-.276.815-.162.56.277.223-.114.463-.715.159-.699.128-.357.64-.065.495.195.224-.114.256-.292-.015-.52-.032-.195-.192-.26-.48-.179-.16-.276-.368-.293-.64-.049-.271.13-.495.147-.639-.048-.144-.244-.112-.358.096-.277.096.033.144-.097.272-.341.048-.098.144-.195.208-.325.303-.05.543-.31.847-.862.224-.098.32-.537.335-1.22.096.05.208.017.352-.08-.096-.017-.144-.05-.144-.31h.288c.112-.048.16-.097.144-.146 0-.049-.112-.032-.192-.163-.032-.162-.128-.325-.304-.487l-.271-.456c-.192-.634-.432-.991-.72-.764l-.08-.048c-.223-.244-.383-.57-.511-.943.016-.44-.448-.472-.688-.05l-.063-.357-.112.195-.72-1.073c.08-.016.224-.097.304-.097.88-.065 1.774-.342 2.686-.862l.639-.195c.288-.114.384-.016.527.13l.656.683c.128.146.128.276.064.406-.064.147.096.325.32.52.207.228.223.553.047.944-.095.26-.08.422.064.504l.448.325c.304.244.448.162.431-.277a1.439 1.439 0 00-.223-.65c-.144-.276-.256-.52-.272-.797-.016-.536-.08-.813-.304-1.008a3.182 3.182 0 01-.64-.829c-.063-.179-.095-.276-.19-.325-.017-.57-.432-.845-.672-.683a1.783 1.783 0 01-.656.033v-.13c.288-.163.784-.683 1.28-1.236.19-.228.27-.146.463.049l.719.764c-.016.374.032.618.288.601.176.31.256.602.096.732-.16.146-.288.228-.288.439.032.293.368.602.735.732.032.016.096-.017.112-.065.096-.26.112-.57.016-.862l-.128-.44c-.016-.178 0-.308.016-.438.032-.341.048-.52-.303-.78-.448-.472-.832-.943-1.135-1.447.016-.667-.56-.846-.912-.114l-.687.488c-.176.113-.288-.066-.288-.26-.064-.878-.655-1.578-1.294-2.26-.352-1.073-.816-1.951-.991-2.78.655.064 1.15.195 1.342.39.288.308.656.487.752.26.031-.065-.176-.195-.272-.31.112 0 .271.098.431.277.288 0 .384-.227.304-.52.032-.244.016-.439-.08-.52l-.24-.147a7.406 7.406 0 01-1.007-1.382c-.032-.065-.048-.097-.048-.146 0-.195-.063-.374-.255-.553l.096-.048-.016-.065.207.048-.207-.357c-.112-.44-.512-.504-1.087-.326-.08.017-.192-.065-.288-.195-.368-.357-.767-.569-.624-.292.016.049.144.179.016.162l-.639-.097c-.144-.016-.16.016-.128.097.112.13.224.244.272.39l-.8.05c-.16.016-.303.08-.447.064-.431-.374-.975-.097-1.535.342l-.08-.033-.015-.666h.064l-.064-.44h.048c.047-.65-.08-1.072-.32-1.365-.048-.195.144-.179.192-.228.192-.227.175-.504.175-.65-.08-.358-.175-.455-.32-.358h-.159a.606.606 0 01-.384-.162c-.192-.13-.351-.13-.527-.016-.831.21-.975.861-1.998.422-.112-.016-.144.033-.096.13.176.228.415.39.671.504-.096.065-.272.082-.575.065.176.228.511.358 1.023.342.192.114.431.065.671-.033.144-.081.144-.032.064.147-.272.227-.447.65-.48 1.447-.095.162-.16.341-.191.536-.384-.097-.72-.179-.848-.065l-.143-.016c-.336-.26-.656-.244-.928-.065l-.59.455c-.225.146-.4.163-.432-.016l-.24-.52c.016-.374-.128-.553-.384-.57a.693.693 0 01-.224-.374l-.176-.227c.064-.195-.016-.277-.16-.277-.143 0-.287-.016-.367-.08L9.02 3.222z" fill="#000"/><path fill-rule="evenodd" clip-rule="evenodd" d="M25.628 20.554l.112-.243c.064-.082.096-.082.144-.017l.271.26c-.064.065-.192.065-.271.082l.095.146-.095.049-.032.13c-.192-.13-.288-.26-.224-.407zm.24-.845c.032 0 .064.098.064.227 0 .13-.032.228-.064.228-.048 0-.064-.097-.064-.228 0-.13.016-.227.064-.227zm-.16-.943c.016-.016.08.016.112.081.047.065.064.147.032.147-.016.016-.08-.017-.112-.098-.048-.065-.064-.114-.032-.13zm.734-1.138c-.032-.033-.064-.016-.096.016-.128.146-.144.277-.08.374l.256.195c.08.065.176.033.128-.032l-.096-.13c.064.016.096.08.16.08.048 0 .064-.064 0-.113-.096-.098-.112-.13-.064-.195.016-.016.016-.049-.016-.065l-.192-.13zm0-1.09c-.112-.146-.096-.227.064-.21-.144-.228.016-.277.144-.033.064.097.08.309.064.569-.016.065-.096.097-.112 0a1.981 1.981 0 00-.16-.325zm.08.911l.064-.276c.016-.065.032-.065.064 0a.697.697 0 01.192.439c.016.08.016.13-.048.146-.064.016-.128-.016-.192-.081-.064-.098-.08-.147-.08-.228zm-4.059-2.991c.016-.488.064-.895.064-1.252 0-.147.095-.147.095.016.017.39-.015.78-.063 1.187 0 .081-.096.179-.096.049zm.655 1.95c.016 0 .032.017.032.05 0 .016-.016.048-.032.048s-.032-.016-.032-.049c0-.016.016-.048.032-.048zm-1.135-1.723l.048-.032c.016-.017.032-.017.048.016l.176.228c.016.016.016.032 0 .048l-.048.033c-.016.016-.032.016-.048-.016l-.192-.228c0-.016 0-.033.016-.049zm1.663 1.252l.063-.455-.08.162c-.063 0-.08-.065-.095-.21-.016-.163 0-.228.096-.196l.064.146.047-.097c.08-.049.096 0 .064.146l-.016.504c-.064.065-.096.195-.143 0zm1.214-1.447c-.063-.097-.08-.211 0-.293a.178.178 0 01.256-.032c.064.033.096.081.096.114l-.144.049.176.048c.096.082.016.228-.064.098-.064-.065-.144-.081-.224-.033-.016.114-.032.13-.096.05zm-1.662.83c.016-.017.064.032.096.097.016.065.032.114 0 .13-.016.016-.064-.016-.096-.081s-.032-.147 0-.147zm-1.071-.098c.016-.016.064.016.096.081s.032.13.016.146c-.016.017-.064-.016-.096-.097-.032-.065-.032-.114-.016-.13zm.32-.57c.08-.016.192.082.207.212.032.146-.015.26-.095.276-.096.017-.192-.065-.224-.21-.032-.147.016-.261.112-.277zm.144.765c-.048-.228.016-.26.095-.049.128.309.192.683.192 1.154 0 .18-.144.196-.144.017-.048-.39-.064-.78-.143-1.122zm1.342.374c.016-.228.064-.456.144-.683.032-.098.08-.114.144-.065.208-.341.16-.146.064.097l.064.033c.256-.488.144-.098.128.114-.192.227-.304.276-.368.114l-.064.309c-.064.162-.096.178-.112.08zM8.268 23.936c-.08.309-.432.146-.256-.13.431-.7.847-1.398.927-2.358.016-.34.224-.487.496-.65.559-.309.767-.861.75-1.463-.127-2.634.592-3.804 1.711-4.26l-.032.098c-1.007.618-1.422 1.82-1.422 3.447-.016.357-.048.731 0 1.138l.031-.082c.032-.959.032-1.772.144-2.34.128-.619.32-.992.512-1.269.064-.098.128-.211.192-.276.096-.098.192-.114.271-.195l-.016.08a3.099 3.099 0 00-.847 1.53c-.16.73-.175 1.593-.112 2.487a.969.969 0 01-.08.325l.048-.016a1.23 1.23 0 00.096-.504c-.08-1.074 0-2.163.384-2.927.272-.52.432-.732 1.167-1.154l-.016.081c-.623.439-1.215.943-1.327 2.65l.032-.032c.112-1.301.576-2.26 1.423-2.618.304-.13.655-.098 1.055-.098l-.064.066c-.592-.066-1.12.146-1.567.634l.064.016c.432-.44.927-.683 1.535-.553l-.048.098c-.432-.065-.8.097-1.151.357v.05c.384-.277.751-.391 1.087-.326.112.016.144.097.112.244l-.064.65c-.016.618-.048 1.236-.192 1.772l-.064.049.064-1.073-.24 1.333c-.016.146-.128.13-.096-.016.064-.277.144-.667.208-1.073-.064.016-.096.049-.112.13-.064.569-.16 1.04-.287 1.203a6.36 6.36 0 00.143-1.09l-.063.066-.176 1.024c.128.065-.032.179-.08.049l.064-.57-.048-.016-.24.895.08-.618-.208.618h-.08l.096-.52-.352.959c-.096.016-.112-.017-.032-.18l.224-.65-.064.017c-.144.488-.24.813-.415.927l-.064.016c.24-.44.271-.65.287-.862-.128.407-.255.7-.48.943-.031-.033.017-.146.145-.39l.128-.342c-.064-.065-.096-.048-.128.066-.08.292-.16.487-.304.682l.144-.569-.016-.065c-.096.342-.24.634-.432.813l.096.049c.304-.211.736-.146 1.167-.341.096-.05.192-.066.24-.017l-.08.228-.08-.13c-.048.179-.112.341-.208.406l-.032-.26c-.192.407-.303.634-.32.44l.032-.245a1.037 1.037 0 00-.271.504c-.064-.016-.08-.146-.064-.357l-.112.439c-.096.016-.128-.098-.064-.358-.096.227-.176.39-.208.423-.048-.066-.064-.196-.016-.342l-.112.228c0 .162-.048.227-.111.211.031-.244.031-.341-.017-.276l-.143.374c-.08.048-.096-.05-.096-.26-.128.065-.096.325-.192.439-.064-.05-.08-.163-.064-.293-.064.195-.112.309-.192.325l-.016-.39a1.56 1.56 0 01-.144.439l-.096-.277-.048.277c-.08.049-.143-.016-.191-.195-.016.357-.048.666-.272.813.016.097-.08.341-.224.617l.368-.552c.08-.017.112.016.08.195l-.384.634c-.064.065-.128.049-.192 0-.08.309-.224.536-.351.748.16-.098.271-.326.383-.634.016-.098.128.016.096.21l-.096.082.016.146-.112.017v.195l-.096.049c.064.162-.064.341-.32.211zm2.175-8.828l.447-.081-.032.097-.415-.016zm-4.189 3.577c.064-.228.208-.358.351-.618.096-.146.128-.049.112.097-.191.293-.335.44-.463.52z" fill="#fff"/><path fill-rule="evenodd" clip-rule="evenodd" d="M10.953 14.913c-.735-.667-1.454-1.024-1.998-.894-1.023.227-1.518 1.187-1.822 2.113.176-.309.32-.504.511-.569-.511.813-.799 1.658-.847 2.618a.63.63 0 01-.192.309c-.32.244-.303.439-.351.65.064-.049.144-.195.256-.325.143-.18.303-.358.367-.667.096-.406.144-.813.224-1.122a4.1 4.1 0 01.432-1.024c.367-.618.847-1.187 1.374-1.414v.048c-.527.293-.91.732-1.342 1.431a5.06 5.06 0 00-.272.585c-.096.228-.192.488-.208.78-.064.635-.224 1.041-.384 1.285-.191.244-.303.358-.335.472-.016.065-.064.162-.064.276.4-.78.591-.699.767-1.252.24-.845.08-1.707 1.183-2.943h.08c-.528.618-.88 1.204-1.071 2.456-.032.21-.064.504-.16.682-.144.277-.432.488-.512.748l.064-.016c.144-.146.416-.472.512-.683.336-.65.224-1.528.64-2.244.559-.926.974-1.398 1.662-1.674l.08-.016c-.895.471-1.055.845-1.455 1.398-.144.195-.24.374-.352.731-.096.31-.175.78-.223 1.139-.064.471-.24.747-.432.975-.096.13-.192.195-.272.309a1.79 1.79 0 00-.176.439l.064-.016c.256-.683.4-.537.592-.78.096-.147.272-.424.304-.749.063-.683.207-1.187.431-1.642.24-.488.624-1.024 1.055-1.398.192-.162.352-.26.608-.341h.063c-.303.211-.511.276-.767.504a4.6 4.6 0 00-.959 1.414 5 5 0 00-.352 1.48c.016-.065.048.032.064-.017.208-1.219.64-2.064 1.167-2.617.304-.31.656-.553.991-.634l.224-.017c-.511.147-.99.39-1.359.96l.064-.017c.448-.487.896-.715 1.343-.813l.064.017c-.304.097-.575.227-.751.39l.016.065c.351-.228.863-.341 1.454-.39zM6.35 20.018a.508.508 0 01-.08-.293c.016-.146.112-.13.144-.032.016.178-.064.195-.064.325zm1.343 1.252l.112-.13c.064-.033.128-.05.176-.017-.016.05-.144.114-.288.147zm-.112.374l.144-.163a.223.223 0 01.24-.033c-.016.066-.176.147-.384.196zm.016.179l.176-.147c.08-.049.192-.065.256-.016-.032.065-.224.13-.432.163zm.048.162l.16-.146a.255.255 0 01.24-.016c-.032.08-.208.146-.4.162zm.08.179l.096-.114c.064-.032.128-.049.176-.016-.016.032-.128.097-.272.13zm.592-1.87l.096-.065c.048-.016.096-.016.128.016-.016.033-.128.05-.224.05zm-.16.196l.192-.098c.096-.017.192 0 .224.065-.032.049-.208.065-.416.032zm.113-.488l.143-.114a.233.233 0 01.208 0c-.016.065-.176.097-.352.114zm.127-.277l.144-.032c.064 0 .144.032.16.08-.032.034-.176.017-.304-.048zm-.32 3.155l.096-.066a.167.167 0 01.128.017c-.016.032-.112.064-.224.048zm.32-.358l-.256.032c-.096.049-.192.146-.192.228.08.016.256-.098.448-.26zm-.128-.13h-.192c-.096.016-.16.08-.176.146.064.032.224-.033.368-.146zm.91.958l.112-.243a.332.332 0 01.256-.13c0 .081-.16.244-.368.374zm.511-.243l.209-.081c.096 0 .191.032.24.097h-.017c-.016.065-.143.195-.32.293l.097-.195a.35.35 0 01.08-.065h-.064a1.05 1.05 0 01-.24.195l.08-.163.048-.049c-.032-.016-.064-.016-.112-.032zm1.008.033c.064-.033.304.016.272.097-.016.065-.16.195-.32.309l.096-.212c.016-.032.048-.048.064-.065h-.08a.93.93 0 01-.224.196l.064-.18c.016-.016.032-.016.048-.032-.016 0-.048-.016-.064-.016a.566.566 0 01-.175.146l.048-.114c.08-.08.143-.08.271-.13zm1.486-.033c0-.195.144-.309.432-.358.335-.049.735.016.623.179h-.032l-.064.146-.128.228.08-.26.032-.13c-.032-.017-.096-.033-.144-.049l-.096.098-.175.195.143-.228.064-.098c-.016 0-.048-.016-.064-.016l-.096.098-.175.195.144-.228.063-.097h-.095l-.064.097-.16.212.112-.244.032-.065c-.048.016-.096.016-.128.032l-.08.195.032-.195c-.144.114-.224.18-.256.293zm-1.086.163v-.017h.016l.288-.195c.192-.098.432-.13.4.033 0 .016-.016.032-.064.048 0 .065.016.13.016.195l-.08-.178h-.048c0 .097 0 .195.016.276l-.112-.26c-.016.016-.032.016-.064.016.016.13.016.277.016.407l-.16-.342v-.016c-.016.065-.032.146-.064.228l-.032-.228c-.032.098-.08.211-.112.325l-.016-.244v-.049z" fill="#fff"/><path fill-rule="evenodd" clip-rule="evenodd" d="M7.805 15.368l.496-.504c-.192.081-.368.244-.496.504zm2.717 9.153c-.048-.114-.096-.227 0-.487.096-.244.208-.31.272-.31.08.098-.016.277.016.52l-.192-.162.064.31-.144-.147-.016.276zm1.631.293a.109.109 0 00-.064-.065c-.016.016 0 .065.016.098.032.048.064.064.08.064.015 0 0-.048-.032-.097zm-.001.211c-.048-.065-.096-.097-.112-.097-.016.016 0 .065.048.146.048.065.096.098.112.098.016-.017 0-.065-.048-.147zm-.096.212c-.031-.065-.063-.098-.08-.098-.015.016-.015.065.016.13.032.049.064.098.08.082.017 0 0-.066-.015-.114zm-.112.195c-.015-.098-.08-.163-.095-.147-.016.017-.016.098.016.195.016.082.064.147.095.147.016-.016.016-.098-.016-.195zm-1.342-.082c.063.017.111.033.111.066-.015.016-.063.016-.127.016-.064-.016-.112-.033-.096-.049 0-.032.048-.049.112-.032zm-.064-.162c.08.016.144.049.144.065s-.064.032-.144.016c-.08-.016-.143-.049-.143-.065s.064-.016.143-.016zm-.031-.179c.095.016.16.065.16.081-.017.033-.097.05-.192.017-.096-.017-.176-.05-.16-.082.016-.016.096-.032.192-.016zm2.988-1.999c-.063-.228.192-.31.448-.196.208.081.464.114.8.049a1.8 1.8 0 01.51-.016c.177.097.16.179-.031.211-.368.358-.64.715-.687 1.073-.128-.179.143-.618.559-1.17-.256.195-.48.455-.703.747.048-.195.191-.438.4-.731-.448.341-.768.845-.72 1.772-.176-.57-.064-1.106.304-1.626l-.496.52.448-.699-.272.098.016-.098-.176.082v-.114l-.224.195.048-.195c-.096-.065-.143.016-.223.097zm.208 1.333c-.016.146-.016.308.096.471.032.032.08-.016.064-.098-.08-.065-.128-.21-.16-.373z" fill="#fff"/><path fill-rule="evenodd" clip-rule="evenodd" d="M14.28 24.407c.015 0 .047.066.047.147 0 .081-.016.146-.048.146-.016 0-.048-.065-.048-.146 0-.081.032-.146.048-.146zm.526-.601c.016.016.016.065-.016.13s-.064.114-.096.098c-.016 0-.016-.065.016-.13.048-.05.08-.098.096-.098zm.128-.276c.016.016 0 .065-.032.113-.032.065-.08.098-.096.082-.016-.017 0-.065.032-.114a.731.731 0 01.096-.082zm4.316.455c.192.065.224.357.112.683a1.494 1.494 0 00-.112-.683zm-.992 1.447a.8.8 0 00-.064-.18c.016.066.016.147.032.212l.032-.032zm-2.253-3.545c.016 0 .064 0 .096.017l.096.146c-.032 0-.064-.016-.096-.016l-.096-.146zm-.191 1.025c.016.016.064.065.064.13.015.065 0 .097-.016.081s-.064-.065-.064-.114c-.016-.065 0-.097.016-.097zm.174-.017c.016-.016.048.033.064.098s.032.098.016.114c-.016 0-.048-.033-.064-.098-.032-.065-.048-.114-.016-.114zm.209-.032c.016 0 .064.065.08.146.016.065.016.098-.032.098-.048.016-.032-.016-.048-.098-.016-.065-.016-.146 0-.146zm.193-.065c.015 0 .063.065.095.146.016.082.032.163.016.163-.016.016-.064-.049-.096-.146-.032-.082-.032-.147-.016-.163zm.207 0c.032-.016.064.065.096.163.016.097.016.195-.016.195-.016 0-.064-.082-.08-.18-.016-.097-.016-.178 0-.178zm.223.032c.017-.016.097.098.097.196.016.097.032.146-.032.146-.08.016-.064-.033-.08-.146 0-.082 0-.195.016-.195zm.161-.048c.032-.017.064.065.096.178.016.098.016.196 0 .196-.016.016-.064-.065-.096-.18-.016-.097-.032-.194 0-.194zm.239-.065c.017 0 .065.097.065.227s-.017.228-.064.228c-.016 0-.064-.098-.064-.228 0-.113.032-.227.064-.227zm.193.081c.015 0 .047.098.047.195 0 .114-.016.195-.047.195-.032 0-.049-.081-.049-.195 0-.098.017-.195.049-.195zm.191-.065c.016 0 .048.098.048.227 0 .13-.016.228-.048.228-.016 0-.048-.097-.048-.227s.032-.228.048-.228zm.206-.049c.033.016.049.114.033.277-.016.13-.048.243-.08.243-.016 0-.032-.113-.016-.26.016-.146.032-.26.064-.26zm.289-.016c.032 0 .032.114.016.26-.016.146-.064.244-.096.244-.016 0-.032-.114-.016-.26.016-.147.064-.244.096-.244zm.209-.13c.032 0 .096.179.064.341-.032.18-.08.31-.112.31-.032-.017-.016-.147.016-.31.032-.195.016-.357.032-.341zm-1.168 1.317c.015-.017.031.032.063.081a.528.528 0 01.016.114c-.016.016-.048-.033-.064-.081-.016-.05-.032-.114-.016-.114zm.16-.049c.017 0 .064.065.08.13.017.065.017.098-.015.114-.048.016-.032-.016-.064-.098-.016-.065-.016-.146 0-.146zm1.55-.504v.081c.032-.016.064-.049.096-.065.016-.211.016-.406.016-.569a4.17 4.17 0 01-.112.553z" fill="#fff"/><path fill-rule="evenodd" clip-rule="evenodd" d="M18.738 23.562c-.063.309-.063.39-.191.504.048-.195.016-.325.016-.358-.032.017-.064.017-.08.017v.032a.559.559 0 01-.128.455c-.016-.162.064-.308.064-.487-.032.016-.064.016-.096.032v.163a1.5 1.5 0 01-.096.26c.016 0 .064-.341.016-.407-.016.017-.064.017-.08.017v.049c-.016.032-.016.065-.032.065s-.016-.017-.016-.066c-.016-.016-.016-.032-.016-.048-.016 0-.032 0-.064.016v.016c.016.033.016.065 0 .065s-.032-.032-.064-.065c-.016 0-.048.017-.064.017.016.065.016.08-.032.097-.064.016-.064-.032-.064-.098-.032.017-.064.017-.096.017.017.049 0 .081-.015.081-.017.016-.032-.016-.064-.065h-.096c.016.049.016.065 0 .081-.016 0-.032-.016-.064-.065l-.016.017c0-.017 0-.017.016-.017-.016-.016-.016-.032-.016-.065-.032-.065-.048-.146-.032-.146.016-.016.064.032.096.114.016.016.016.065.016.081.016-.016.064-.016.08-.016 0-.017 0-.033-.016-.05-.016-.097-.016-.178 0-.194.016-.016.064.065.08.146 0 .016.015.033.015.065.032-.016.064-.016.096-.032-.016-.065-.016-.082-.016-.114 0-.049 0-.065.016-.065.016-.016.064.065.096.162.016-.016.032-.016.064-.016l-.016-.016c-.016-.065-.016-.098-.016-.146-.016-.033-.016-.05 0-.065.016-.017.064.08.096.162 0 .016 0 .016.016.033.016-.017.032-.017.064-.017v-.178c0-.05.016-.066.016-.066.016 0 .016.017.032.066.016.048.016.097.032.162.016 0 .048-.016.064-.016v-.098c.016-.032.016-.065.016-.065.016-.016.032.065.048.114.032-.016.064-.016.096-.032v-.13a.17.17 0 01.016-.066c.016-.016.016.017.016.05.016.032.016.064.016.113.016-.016.048-.016.064-.032 0-.066.016-.147.016-.196.016-.048.016-.08.032-.08.016-.017.016.015.016.064.016.049.016.098.016.179.016-.016.048-.016.064-.016.08-.325.191-.78.191-1.17-.016-.05-.048-.082-.064-.13-.016.438-.064.812-.191 1.072a2.98 2.98 0 00-.016-1.187h-.032c.016.488.016.878-.112 1.155a2.87 2.87 0 00-.112-1.252c-.016-.017-.048-.017-.064-.017.096.098.08.472.032.52-.064-.227-.016-.292-.208-.438h-.064c.096.114.112.293.096.439a1.487 1.487 0 00-.24-.374h-.096c.144.179.144.211.128.357-.064-.146-.287-.26-.383-.325-.048 0-.064.017-.096.017.112.065.271.276.223.341-.08-.098-.255-.195-.32-.309-.047 0-.015.016-.063.016.016.065 0 .114.016.195-.096-.016-.16-.032-.288-.178-.016 0-.064-.017-.064 0 .016.032.064.113.064.146-.016-.033-.272-.163-.288-.195-.016-.016.048-.016-.095-.016.015.032.095.227.095.26a1.6 1.6 0 00-.223-.244c-.064-.016-.096-.016-.16-.016l-.096-.18a7.129 7.129 0 001.79-.113l.64-.13c.223-.065.367.049.415.39l.032.374c.144.195.192.439.064.78.064.244.192.456.4.635.192.178.207.422-.016.78-.192.52-.48.829-.72 1.17 0 .017-.016.017-.016.033-.016.016-.016.016-.032.049.016-.017.016-.033.032-.065-.016-.065-.016-.114-.032-.18a.493.493 0 01.064.131c.032-.065.064-.114.096-.179-.016-.065-.016-.114-.032-.195.016.049.048.081.064.13.016-.049.064-.098.08-.146a.93.93 0 00-.064-.195.639.639 0 01.08.146c.032-.065.064-.114.096-.179-.016-.065-.032-.114-.048-.179.016.033.048.065.064.114.032-.097.064-.195.064-.26l-1.183.748c.096-.098.224-.179.32-.276l-.016.016c-.016-.065-.016-.147-.032-.228.032.065.064.13.08.195.016-.016.064-.049.08-.065-.016-.097-.016-.195-.032-.276.048.081.064.162.096.227.032-.016.064-.065.096-.08-.016-.115-.016-.245-.048-.375a.804.804 0 01.111.31.412.412 0 01.096-.082c-.016-.163-.032-.358-.064-.52.08.162.144.308.144.439.016-.017.048-.033.064-.066-.016-.178-.032-.39-.064-.569.096.18.144.358.16.488 0-.016.016-.016.032-.032 0-.195-.032-.44-.064-.683.112.227.176.439.144.585l.064-.065c-.016-.341-.128-.65-.224-.96-.048.163-.048.229-.096.212.016-.195.016-.276-.016-.292-.016.26-.08.422-.16.504l.049-.423h-.049v-.049z" fill="#fff"/><path fill-rule="evenodd" clip-rule="evenodd" d="M17.7 24.31c0 .065 0 .13-.047.13-.048-.016-.032-.065-.016-.13h.063zm.127-.13c.016.016.032.032.032.114 0 .081 0 .146-.064.146-.064-.016-.064-.081-.032-.146.032-.098.048-.114.064-.114zm.16.016c0 .13 0 .228-.048.211-.048-.016-.048-.097-.016-.21h.064zm-.017-.162c.016 0 .016.016.016.065h-.064c.016-.033.032-.065.048-.065zm.16-.017c.016 0 .032.05.032.147 0 .097 0 .195-.08.195-.08-.017-.064-.098-.032-.212.032-.097.048-.13.08-.13zm-.798-3.365c.288.065.592.309.88.569.048.081.016.098-.048.065-.192-.065-.496-.407-.832-.634zm1.102.764c.064.032.08.065.064.081-.016.017-.064.017-.112-.016s-.08-.081-.064-.098c.016-.016.064 0 .112.033zm-2.893.423c.096.016.208.016.304.032l.064.114-.016-.016c-.032 0 .096.374-.08-.017-.016-.048-.096-.032-.144-.065-.048 0-.032-.016-.128-.048zm-1.439 5.072c.064 0 .112.016.112.049 0 .016-.032.032-.096.032-.063 0-.111-.016-.111-.032-.016-.033.032-.049.095-.049zm.145.293c.096-.016.192-.033.208-.016.016.016-.048.065-.144.097-.096.017-.191.017-.207 0 0-.032.048-.065.143-.081zm.095.081c.096-.016.208-.032.224-.016.016.016-.064.065-.16.098-.112.032-.208.032-.224.016-.032-.017.048-.065.16-.098zm.144.114c.064-.016.144-.016.144 0 .016.016-.032.049-.096.065-.08.016-.144.016-.16-.016-.016 0 .032-.049.112-.049zm.081.098c.064 0 .112.016.112.048.016.017-.032.033-.096.033s-.112-.016-.112-.033c0-.016.048-.048.096-.048zm1.23-.472c.096-.032.192-.032.192.016.016.033-.048.098-.144.147-.096.032-.192.032-.192-.017 0-.048.064-.097.144-.146zm-.16-.114c.064-.032.144-.032.144 0 .016.033-.032.081-.096.098-.064.032-.143.016-.143 0-.032-.017.032-.065.095-.098zm-.144-.211c.064-.016.096-.016.112 0 .016.033-.016.065-.08.081-.064.017-.096.017-.112 0-.016-.016.016-.048.08-.081zm-1.661-.96c-.017-.064-.065-.064-.096-.016-.016.082.015.195.095.228.096.049.112-.049.064-.081-.047-.049-.063-.081-.063-.13zm-.176-.097c.016-.065-.048-.097-.096-.049-.064.082-.08.212-.016.293.08.098.144.016.128-.049-.016-.065-.032-.114-.016-.195zm8.04-5.251c-.064.097-.096.504.255.975.128.163-.016.277.16.31.064-.017.112-.066.128-.18l-.112-.065h.16l-.176-.113c.064-.017.192.016.192-.033-.016-.065-.176-.081-.256-.114l.192-.049c.016-.065-.096-.097-.288-.162l.192-.049-.208-.13.16-.049-.255-.13.143-.065-.143-.049.143-.065c-.143-.049-.192-.146-.287-.032zm-.273.308a.578.578 0 01-.048-.39c.08-.21.16-.276.224-.276.144.146-.096.244-.144.358-.032.032-.032.114-.032.309zm-.063-.731c.064-.065.128-.098.144-.065.015.016-.016.081-.064.146-.064.065-.128.098-.144.082-.032-.017.016-.082.064-.163zm-.048.748c.032 0 .064.032.064.081 0 .033-.032.065-.064.065-.047 0-.08-.032-.08-.065-.015-.032.033-.081.08-.081zm.144.243c.048.017.064.066.016.13-.016.066-.064.098-.096.066-.048-.016-.064-.065-.016-.13.016-.065.064-.098.096-.065zm.16.245c.064.016.064.08.016.146a.16.16 0 01-.176.081c-.064-.016-.064-.097-.032-.146.048-.065.128-.114.192-.081zm.176.26c.032.049.016.097-.048.114-.048.016-.112.016-.144-.033-.016-.032-.016-.081.048-.098.064-.016.112-.016.144.017zm.831.146c.016-.032.016-.097-.032-.097-.064-.017-.096-.017-.128-.066-.048-.146.016-.21.144-.243.096 0 .128.032.096.097l-.064.049c.096.033.175.065.207.13-.064 0-.096.016-.096.065.192-.032.192.277.016.228-.111-.033-.175.016-.111.211.047.228.207.293.191.049-.016-.114.368-.146.416.114l-.144-.065c.032.195.192.097.208.276l-.128.016c.144.098.272.228.32.39-.16-.016-.176-.195-.32-.195.192.277.432.212.543.488-.16-.016-.351-.146-.575-.358.192.277.32.52.272.634-.288-.13-.352-.569-.464-.682 0 .227.16.357.096.601-.112-.146-.176-.358-.176-.715.112.016.16-.065.16-.26-.016-.212-.128-.195-.096 0 0 .146-.096.195-.415.016-.048.049.016.098.192.211l-.017.18.096-.147.032.488c-.016.13-.048.097-.08-.017l-.031-.244c0 .18-.017.26-.08.244l-.048-.455-.128.163-.032-.26-.112.097v-.309c-.08.049-.176.016-.272-.13a.329.329 0 00.304-.049c-.048-.309.048-.422.256-.455zm-2.749 1.431c.016-.098.032-.147-.064-.277-.048-.048-.08-.065-.064 0 .016.082.112.18.128.277zm-.176-.716c.144.082.224.098.304.31.016.08.016.146-.048.064-.096-.097-.144-.276-.256-.374zm.016-.455c.192.146.272.163.367.488.017.13-.015.195-.08.097-.111-.162-.143-.406-.287-.585zm.096-.325c.224.065.384.341.384.57 0 .13-.064.21-.096.097-.048-.163-.128-.504-.288-.667zm.096-.179c.192.081.32.228.383.44.016.113 0 .178-.08.08a1.346 1.346 0 00-.303-.52zm1.357 5.788c.048-.114.224-.228.432-.146.096.016.08.146.08.227-.064-.065-.112-.13-.176-.065-.176-.113-.224-.048-.336-.016zm-.623.049c.049 0 .08.016.08.065 0 .033-.031.065-.08.065-.031 0-.063-.016-.063-.065-.016-.033.032-.065.064-.065zm-.4 0c.016-.016.064.032.08.097s.016.114-.016.114c-.016.017-.064-.016-.08-.097-.016-.05-.016-.114.016-.114zm.13-.016c.016 0 .032.016.048.065.016.032.016.065-.016.081-.016 0-.032-.016-.048-.065 0-.033 0-.065.016-.081zm.032-1.512c-.016.016-.016.016-.016.032-.048.049-.096.081-.096.065-.016-.016-.016-.065.016-.114l.048-.048c-.016-.017-.016-.017-.016-.033-.016.016-.016.016-.016.033-.048.065-.096.097-.128.065-.016-.017-.016-.082.032-.147l.048-.049-.016-.016c-.048.065-.096.082-.128.065-.016-.016-.016-.081.032-.146 0-.016.016-.016.016-.016-.016-.017-.016-.033-.032-.05-.032.017-.064.034-.08.017-.016-.016 0-.065.032-.097-.016-.05-.032-.098 0-.114.064-.065.096.016.176.179.016.065 0 .097.032.13.016.049.096.065.112.097.08.13.064.228.064.244-.032.016-.032 0-.08-.097zm-.002.114c.032.016.016.097-.048.162s-.112.098-.144.081c-.032-.016-.016-.097.032-.162.08-.065.144-.098.16-.081zm1.424-.683c.016 0 0 .065-.016.146-.016.065-.064.114-.096.098-.016 0 0-.066.016-.147.032-.065.064-.114.096-.097zm-.176-.082c.016.017.016.098-.032.212-.064.097-.112.179-.144.162-.032-.016-.016-.097.032-.211.048-.098.112-.163.144-.163zm-.4-.162c.016.016.016.081-.016.178-.032.082-.08.147-.096.13-.016-.016-.016-.08.016-.162.032-.098.064-.146.096-.146zM10.09 5.077c.033-.163.145-.244.256-.26l.256.048c.096.065.08.098-.016.098-.208-.033-.32.016-.383.146-.096.146-.128.146-.112-.032zm.8.503c.016 0 .064.017.064.066 0 .032-.032.065-.064.065s-.064-.033-.064-.065c0-.05.032-.065.064-.065z" fill="#fff"/><path fill-rule="evenodd" clip-rule="evenodd" d="M10.043 5.337c-.08.097-.064.227.08.357l.191.228c.16.114.24.098.224-.081-.016-.114.016-.163.112-.163a.233.233 0 00.144-.097c.016-.098.016-.147-.064-.163a1.31 1.31 0 01-.384.179c.144-.098.24-.163.272-.228.032-.032.08-.049.144-.016 0-.065-.016-.114-.096-.146-.16 0-.32.113-.48.276.096-.195.224-.309.432-.309.016-.065 0-.097-.064-.146a.452.452 0 00-.352.097l-.16.212zm.943 1.463c.384.374.704.813.96 1.317v.439l-.144-.488c.016.342 0 .57-.032.488l-.112-.7-.08.31-.064-.44c-.064-.048-.064.228-.064.602-.096-.097-.096-.406-.08-.748l-.112.326c-.064-.18-.032-.407 0-.635-.064-.065-.112.066-.144.407-.08-.228-.064-.423-.016-.65l-.08.178-.032-.406zm2.813-3.3c.127.097.303.113.48.113l.015.098c.272 0 .56-.13.847-.325-.016-.016-.064-.016-.128 0-.207.097-.191.032.208-.163.064-.032.096.016.192-.016l.256-.065c-.208.195-.416.374-.64.553-.32.195-.607.227-.879.146a1.77 1.77 0 01-.431-.276c-.048-.065-.08-.114.08-.065zm1.582.048c.032 0 .064.017.064.05 0 .032-.016.048-.064.048-.016 0-.048-.016-.048-.049 0-.032.032-.049.048-.049zm.352.699c.016-.032.048-.048.064-.016a.05.05 0 010 .065c-.016.033-.064.049-.064.033-.016 0-.016-.049 0-.082zm.816-.308c.032-.017.064-.017.08.016.016.016 0 .065-.048.081-.032.016-.064.016-.08-.016-.016-.033 0-.065.048-.081zm-.176-.13c.032-.017.064-.033.08-.017.016.017.016.065-.016.082-.032.016-.064.032-.08.016s-.016-.049.016-.081zm-1.263.243c.031-.016.063 0 .079.017 0 .016-.016.065-.064.065-.032.016-.064 0-.08-.017a.126.126 0 01.064-.065zm.447.862c.048-.016.096-.016.112 0s-.016.065-.064.081c-.048.017-.096.017-.112-.016-.016-.016.016-.049.064-.065zm-1.469-.797c.128-.016.304-.065.527-.162l.272-.13c.128-.065.144-.049.048.065-.112.114-.272.179-.368.26a.584.584 0 01-.511.097c-.128-.048-.08-.113.032-.13z" fill="#fff"/><path fill-rule="evenodd" clip-rule="evenodd" d="M14.886 4.004c.143-.147.24-.18.447-.277.192-.081.384-.097.591-.097.144-.13.272.048.112.195-.048.049-.096.065-.16.097-.143.114-.303.163-.479.212-.208.065-.224.032-.064-.082.064-.048.096-.08.16-.113.128-.082.272-.098.384-.114-.192-.13-.576.065-.96.26-.08.049-.111.016-.031-.081z" fill="#fff"/><path fill-rule="evenodd" clip-rule="evenodd" d="M15.925 3.402c.08-.016.144-.016.24-.016.144.049.224.13.224.227-.032.098-.08.163-.144.195-.032-.195-.096-.292-.208-.325-.048-.016-.064-.016-.112-.016v-.065zm-.176.048c.048-.015.064-.032.096-.048v.065c-.048.016-.048.016-.096.016-.032.017-.08-.016 0-.032zm-.191-.13a.638.638 0 01.351-.194c.144-.017.288-.017.432.016.288.097.176.195-.016.13-.112-.065-.256-.065-.416 0-.016.114-.207.016-.32.098-.08.048-.08.032-.031-.05zm.831.05c.096 0 .16.016.176.097.016.098-.016.195-.08.228.032-.228-.064-.195-.096-.325zm.255-.066c.016.033.032.13 0 .277l-.095.179c-.017.081 0 .097.063.081a.294.294 0 00.144-.26c0-.179.016-.26.064-.309-.112-.179-.208-.163-.176.032zm-.735 1.025c0 .114.272.146.304.016.064-.146-.048-.244-.016-.39a.367.367 0 00-.288.374zm-.064.309c.064-.098.144-.147.288-.13.096 0 .16.016.16.13 0 .097.015.227-.017.309-.031.097-.047.08-.16.097-.127 0-.175-.065-.303.016.064-.195-.016-.276.032-.422zm.48-.456c-.064-.097.016-.13.064-.065a.344.344 0 01.111.228c.016.081-.08.146-.143.081-.032-.065.032-.146-.032-.244zm.063.439c-.032-.113.016-.13.144-.065.096.082.096.147.064.195.096.098.096.228.016.374-.064-.048-.128-.016-.176-.097-.016-.049-.048-.016-.016-.195 0-.082 0-.13-.032-.212zm.161.959c.064 0 .096.033.096.066 0 .032-.048.065-.096.048-.064 0-.096-.032-.096-.065 0-.016.048-.048.096-.048zm-.703-.097c.064 0 .096.033.096.065 0 .033-.048.065-.096.065-.064 0-.096-.032-.096-.065-.016-.049.032-.081.096-.065z" fill="#fff"/><path fill-rule="evenodd" clip-rule="evenodd" d="M16.707 5.353c-.064-.114-.24-.195-.495-.228a1.736 1.736 0 00-.607.082c-.128.146-.176.357-.144.634l.095.016-.095.065h.127l-.08.114.065.016-.048.163.063.048-.031.098.095.016-.015.098.063.016-.016.098.064.016c.048.065.128.13.224.195a.345.345 0 00.224.016c.144-.097.176-.195.288-.325.032-.016.048-.081.048-.195.064-.033.096-.098.096-.179l.064-.081v-.277c-.064.017-.112.033-.176.017l-.16-.065-.048.357c0 .065-.032.18-.112.147l-.192-.098c-.048-.016-.032-.097.016-.114l.064-.016v-.309c-.112.033-.24.049-.352-.032-.064-.033-.111-.033-.16-.033a.442.442 0 01.128-.162l-.063-.098c.015 0 .063.016.095.016.16-.016.24-.032.288.017.048.048.08.08.128.097l.016-.081c.032-.098.096-.114.208-.082l-.016.228.367-.114v-.081h-.015zm-.847.96a1.01 1.01 0 01.32 0c.192.048.192.113.016.227-.096 0-.224 0-.336-.033.048-.065.08-.081 0-.195zm.144.08c.048-.032.112-.032.192 0 .032.017.016.066-.016.082a.174.174 0 01-.128 0c-.048-.033-.016-.049-.048-.081z" fill="#fff"/><path fill-rule="evenodd" clip-rule="evenodd" d="M16.037 6.036c.016 0 .032.016.032.032 0 .017-.016.017-.032.017s-.032-.017-.032-.017c0-.032.016-.032.032-.032zm.176-.536c0-.017.016-.05.016-.082.064-.065.08-.098.08-.032 0 .048 0 .08-.016.113h-.08zm-.064.568a8.07 8.07 0 01.064-.471h.08c-.016.13-.016.276-.064.488-.032.048-.064.032-.08-.017zm-.879-.813c-.016-.097.08-.08.096 0 .016.163 0 .293-.08.374-.064.033-.144 0-.096-.065a.38.38 0 00.08-.309zm-.08.667c-.016-.097.048-.146.064-.016.08.309.223.618.527.91.128.098-.016.195-.128.098-.303-.277-.383-.65-.463-.992zm1.15.959c-.015-.097.017-.195.128-.276.064-.049.096.032.064.081-.08.098-.127.098-.191.195zm-3.005 1.301c.016-.081.016-.146.064-.195-.016-.016-.063-.033-.08-.065-.064.13-.143.227-.255.39.08-.244.16-.439.335-.618-.016.081-.048.147-.063.212.015.016.063.048.08.065.015-.017.047-.05.063-.065 0 .032 0 .065-.016.097h.016l-.016.049-.016-.016a.3.3 0 01-.111.146zm-.127.211a.31.31 0 01.08-.162c-.016.081-.032.114-.08.162zm.608.097c.015-.048.015-.097.031-.13l.017-.016c0-.016.015-.032.015-.048.017-.017.048-.065.064-.082 0 .13-.031.18-.127.277zm-.033.342c-.032-.114 0-.195.144-.276 0 .179-.016.227-.144.276zm.289-.114c.111-.276.127-.406.095-.764.112.342.096.423-.095.764zm1.87 1.073a2.27 2.27 0 00.064-.731c-.016.016-.032.016-.064.016-.016.13-.048.277-.112.472a1.48 1.48 0 00.048-.456c-.016.017-.048.017-.064.017a2.607 2.607 0 01-.096.374c.016-.13.032-.244.032-.358-.032 0-.064.016-.096.016-.016.146-.032.31-.064.52 0-.178-.016-.357-.016-.52h-.112c0 .179-.016.358-.064.602-.016-.212-.016-.407-.016-.602-.032-.016-.064-.016-.111-.016 0 .195-.017.374-.065.634-.015-.228-.015-.439-.015-.65-.032-.017-.064-.017-.096-.033a4.931 4.931 0 01-.096.585c0-.21 0-.39.016-.601-.032-.016-.064-.016-.096-.033-.016.228-.032.44-.048.683-.032-.309-.064-.52-.032-.731-.032-.017-.064-.017-.096-.05a2.75 2.75 0 00-.064.814c-.08-.358-.096-.57-.016-.83-.016-.016-.048-.032-.064-.048-.032.097-.096.195-.16.309.064-.114.08-.228.112-.342-.032-.016-.08-.049-.112-.065-.016.147-.096.31-.208.52.144-.373.16-.731.176-1.17.032.179.064.309.064.439.048.016.08.032.128.065.016-.195.032-.39.032-.602.064.26.08.44.048.618.032.016.064.033.096.033.016-.017.032-.065.064-.098-.016.033-.016.065-.032.098.016 0 .064.016.08.016.016-.065.032-.146.064-.244 0 .098-.016.179-.016.276.032 0 .064.017.096.017 0-.065.016-.13.016-.195.016.08.016.146.032.211.032 0 .08.016.111.016v-.276c.017.097.049.195.065.276.047.016.095.016.143.016 0-.097 0-.178.016-.276.016.098.032.195.064.276h.112v-.422c.048.162.064.292.08.406.032 0 .064-.016.096-.016 0-.098-.016-.195-.032-.309.048.098.08.195.096.293.016 0 .048-.017.064-.017-.016-.097-.032-.21-.048-.325.048.114.08.212.096.31.016 0 .048 0 .064-.017-.016-.163-.032-.341-.064-.537.24.65.24.96 0 1.642zm.318-.78l.049.098.16-.147c.048-.065.096-.048.127.033l.017-.195c.064-.033.095-.017.143.049.032-.05.032-.098.016-.18l.016-.227c-.096-.146-.16-.244-.271-.276.064.13.064.227.016.325-.016-.146-.08-.26-.192-.31a.445.445 0 01.048.277.348.348 0 00-.112-.097l.016.146-.064.049.032.455zm1.057-.829c0 .032 0 .065-.017.065-.015 0-.047-.016-.08-.065h.097zm-.065-.195c.016.065.048.097.048.146h-.128c-.015-.032-.047-.065-.064-.114-.015 0-.015-.016-.015-.016h.16v-.016zm-.209-.227c.032 0 .112.064.176.178h-.144c-.048-.097-.064-.179-.032-.179zm-.063.422c.017-.016.065.032.097.098.032.065.048.13.032.146-.016.016-.064-.033-.096-.098-.032-.081-.048-.146-.032-.146zm-.223-.049c.016-.016.064.049.128.13.048.098.063.163.048.179-.016.016-.064-.049-.128-.13-.048-.098-.064-.179-.048-.179zm-3.709-.455a.35.35 0 01.08.065l.064-.065c-.016.081-.032.098-.096.163.016-.033.016-.066.032-.098a.282.282 0 00-.08-.065zm-1.04 11.738l-.032.147-.048-.017.016-.13h.064zM8.445 24.57c.144-.065.192.016.224.195.128.114.208.212.208.31.271.227.223.308-.144.276-.112-.033-.192-.114-.192-.277l-.096-.504zm.063.91c-.096.147-.064.31.048.456.064.081.144.097.224.097l-.048-.13.144.098c0-.065-.064-.146-.192-.244l.176.049c0-.098-.08-.18-.224-.244h.112c-.048-.163-.144-.212-.24-.081zm.447.082c.048-.016.08.049.096.114s-.016.13-.064.146c-.032.016-.08-.049-.096-.114 0-.081.032-.146.064-.146zm2.335-8.015c0-.374.16-.732.368-1.106a9.961 9.961 0 00-.368 1.106zm.83-2.179c-.143.065-.143-.065-.047-.146.224-.195.463-.26.735-.26h.48c.192 0 .16.195-.016.178h-.352c-.288-.016-.543.082-.8.228z" fill="#fff"/><path fill-rule="evenodd" clip-rule="evenodd" d="M13.16 15.19c.127 0 .223.015.223.048s-.095.049-.223.049-.224-.017-.224-.049c0-.033.112-.049.224-.049zm.958-2.488c-.016-.017-.08.065-.16.162-.063.098-.111.195-.095.195.016.017.08-.065.144-.162.063-.098.111-.195.111-.195z" fill="#fff"/><path fill-rule="evenodd" clip-rule="evenodd" d="M13.304 13.515c-.064.097-.032.162.08.211.464.146.911-.016 1.359-.276l.56-.277c.095-.13.08-.162-.065-.114l-.271.147.064-.228a1.245 1.245 0 00-.304.358l-.048-.114a.472.472 0 00-.144.244l-.064-.13c-.064.032-.096.081-.144.146l.016-.162c-.048-.033-.112.048-.207.227l.048-.179c-.032-.032-.096.033-.176.212l.192-.57c-.096.017-.224.228-.352.602-.064.016-.08-.016-.064-.065l.208-.406c-.096-.017-.224.146-.352.406l.16-.471-.304.39v-.146a1.098 1.098 0 00-.192.195zm.063 7.625c-.048-.05.032-.098.064-.065l.143.13c.032.032-.047.097-.08.065l-.127-.13zm.096-.098c-.016-.032.032-.081.064-.065l.112.114c.032.032-.032.081-.064.065l-.112-.114zm.08-.114c-.048-.049.032-.097.064-.065l.143.146c.032.033-.064.098-.08.066l-.127-.147zm.048-.162c-.048-.065.064-.147.112-.098l.208.212c.064.065-.08.146-.112.097l-.208-.211zm.224-.196c-.064-.064.016-.162.08-.097l.256.228c.064.065-.032.162-.096.113l-.24-.243zm.145-.113c-.065-.065.015-.146.063-.098l.224.195c.064.065-.032.147-.08.098l-.208-.195zm.19-.082c-.048-.048.016-.113.064-.08l.192.162c.048.049-.032.13-.064.097l-.192-.178zm-.91-1.316c0-.065-.096-.033-.096.016l-.016.211c0 .049.096.016.096-.016l.016-.211zm-.304.292c-.016-.097-.096-.049-.096.017l.016.162c0 .081.112.033.096-.016l-.016-.163zm-.352.228c-.016-.081-.064-.065-.064 0l-.016.146c-.016.081.08.049.08 0v-.146zm.448-.293c.016 0 .048.016.048.065s-.016.065-.048.065c-.016 0-.032-.016-.032-.065s.016-.065.032-.065zm-.32.211c.032 0 .064.033.064.066 0 .048-.016.065-.064.065s-.064-.017-.064-.065c0-.033.032-.066.064-.066zm-.288.212c0-.065-.096-.065-.096-.016v.146c0 .065.096.065.096.016v-.146zm2.493-8.861c.032 0 .064.033.064.082 0 .048-.016.097-.064.097-.016 0-.048-.049-.048-.097 0-.05.016-.082.048-.082zm.144.228c-.016 0-.032-.065-.032-.13 0-.082.016-.146.032-.146s.048.064.048.146c-.016.065-.032.13-.048.13zm.208-.066c.064 0 .096.017.096.05 0 .016-.048.032-.096.032s-.096-.016-.096-.032c0-.017.048-.05.096-.05zm.112.212c.016 0 .048.017.048.049s-.016.065-.048.065c-.016 0-.032-.016-.032-.065 0-.033.032-.049.032-.049zm.192-.016h.432c.143 0 .16.065.064.195.047.228-.24.39-.224.016-.016-.065-.096-.097-.272-.097-.064-.033-.064-.098 0-.114zm-.672 2.748c.032 0 .064.016.064.065 0 .032-.016.065-.064.065-.016 0-.048-.033-.048-.065 0-.033.032-.065.048-.065zm-.176.065c.032 0 .064.032.064.08 0 .033-.032.066-.064.066-.047 0-.063-.033-.063-.065-.017-.049.015-.081.063-.081zm.226.13c.144-.098.304-.18.32-.147.016.033-.08.147-.24.277-.16.097-.304.162-.336.13 0-.049.096-.163.256-.26zm.559-.374c.095-.082.191-.13.191-.114.016.016-.048.098-.144.195-.096.065-.191.13-.191.098-.016-.017.047-.098.143-.18zm-.369.894c.032-.081.064-.163.112-.228l-.016-.016c.016-.146.128-.244.272-.309l.016.016a.474.474 0 01.176-.113c-.032.065-.064.113-.096.162l.032.016a.984.984 0 01.303-.195.988.988 0 01-.223.228l.063.049c.096-.098.224-.163.336-.212-.08.082-.16.18-.256.26l.08.05a.704.704 0 01.352-.163 1.458 1.458 0 00-.16.146c.08-.016.176-.016.288-.032-.144.065-.24.097-.352.146l.096.065a.719.719 0 01.352-.098c-.08.05-.176.098-.272.147l.08.048a.486.486 0 01.336-.065 1.225 1.225 0 00-.256.114l.048.033a.682.682 0 01.304-.065c-.096.032-.16.081-.24.114l.064.032a.526.526 0 01.272-.016c-.064.016-.144.032-.208.065l.24.146-.049.016-.367-.13c-.016 0-.032.016-.048.016 0-.016.016-.016.016-.032l-.096-.016c-.048.016-.096.065-.16.081a.275.275 0 01.096-.098l-.096-.032c-.048.016-.096.065-.16.081a.604.604 0 01.096-.114l-.096-.032c-.064.049-.128.098-.191.13a.475.475 0 01.111-.146l-.127-.05c-.065.066-.112.099-.176.147a.39.39 0 01.096-.179l-.112-.048c-.064.065-.128.113-.192.179.032-.066.064-.147.112-.196l-.176-.097a1.289 1.289 0 01-.224.195zm-1.278.358c-.144.309-.303.78-.4 1.723-.063.423-.095.845-.015 1.268.048.228.143.309.255.309l1.71-.276c.129-.017.256-.13.193-.244l-.064-.147-.064.195-.096-.162-.064.195-.096-.228-.08.277-.096-.228-.064.228-.064-.195-.064.244-.08-.228-.064.276-.096-.26-.063.195-.08-.146-.064.146-.08-.114a.307.307 0 00-.24 0l-.032.066-.048-.066a4.087 4.087 0 00-.383-.08l.16-.082c0-.065-.065-.081-.16-.065l.175-.13-.191-.033.175-.097c0-.049-.048-.098-.191-.146l.191-.066v-.048l-.191-.017.191-.097c.016-.049-.032-.081-.16-.13l.16-.049c-.016-.049-.016-.098-.143-.146l.143-.05-.143-.097.175-.065c0-.065-.016-.081-.128-.13l.192-.081a.272.272 0 00-.176-.13l.176-.065-.144-.098.16-.065-.128-.081.144-.098c.032-.032-.016-.065-.144-.08l.176-.066.016-.065-.16.016.08-.065-.112-.081.24-.065.016-.049-.16-.048.144-.082c-.032-.065-.08-.097-.144-.097zm.256.26l.032-.017c-.144.83-.224 1.626-.096 2.342-.064-1.106.08-2.293.288-2.488l.032.082c-.24.894-.272 1.69-.096 2.406-.096-1.22-.016-1.919.192-2.293v.114c-.16.862-.176 1.545-.016 2.114l.048-.033a7.005 7.005 0 01.095-2.276l.08.016c-.16.894-.16 1.61-.048 2.244l.048-.049c-.111-.943-.095-1.577.048-2.162l.064.016c-.127.894-.143 1.593-.016 2.162l.048-.016c-.096-.975-.048-1.658.08-2.179l.048.05a8.355 8.355 0 000 2.097l.048-.017c-.016-.845-.064-1.512.032-2l.064-.065c-.08.618-.08 1.317.016 2.082h.048c-.08-.91-.064-1.61.032-2.163l.048.033c-.048.731-.048 1.398.016 2.146l.048-.016c-.048-1.009-.016-1.691.096-2.114.096-.033.096.081.016.211a8.26 8.26 0 000 1.886l.064.017c-.064-.976-.016-1.529.096-2.082.064-.065.111.017.048.147-.08.683-.128 1.154-.064 1.935h.08c.095.032.095.065.015.097-.559.114-1.102.228-1.63.26-.096.017-.144-.049-.144-.195a6.97 6.97 0 01.24-2.292zm1.902.471l.064-.357c.08-.05.112-.017.096.065l-.144.292h-.016zm-.128-.374c-.08.586-.08.943-.144 1.545l.048.097c.016-.683.096-1.105.192-1.626.048-.08-.048-.113-.096-.016zm-.176-.016c.032-.049.096-.033.08.016-.096.504-.144 1.106-.16 1.772h-.031c-.032-.65-.016-1.235.111-1.788zm-2.381 3.82c-.016-.194.016-.39.08-.585.016-.08.096-.13.24-.146l1.534-.227c.08-.017.096.032.08.146a1.088 1.088 0 01-.112.406c-.064.049-.064-.146-.064-.455-.112.276-.064.569-.256.618-.08-.13.048-.374.064-.57-.176.163-.112.358-.271.57-.064.016-.048-.195-.017-.504-.08.227-.143.422-.223.504-.048-.065-.048-.244-.032-.44-.064.31-.144.521-.224.554a1.756 1.756 0 01.016-.504l-.032-.033c-.048.293-.096.472-.16.553a.697.697 0 01.016-.537h-.048c-.048.147-.064.277-.144.325-.096-.016-.143-.113-.143-.292-.065.341-.192.52-.304.618z" fill="#fff"/><path fill-rule="evenodd" clip-rule="evenodd" d="M16.245 15.872c-.096.065-.128.146.064.146-.128.114-.144.195-.032.228-.224.293-.224.374-.016.244-.256.325-.224.374-.048.309-.224.276-.192.309-.112.309-.144.211-.144.308-.016.308-.112.05-.192.147-.224.326-.048.195-.543.39-.127.569.127.065.223.244.303.552.032.163.096.18.24.114.112-.032.224-.049.352-.065.224.017.224-.227-.016-.26.016-.097-.064-.146-.192-.081.096-.179-.016-.13-.064-.147.064-.032.064-.113-.128-.016l-.016-.065c.096-.032.144-.097.144-.162l-.304.097c.096-.081.144-.146.128-.195l-.224.049c.224-.163.32-.277.304-.341l-.24.064c.176-.146.288-.26.272-.325l-.208.082c0-.065.096-.147.272-.195.144-.066.208-.163.192-.293l-.304.146c.256-.227.464-.439.512-.585-.016-.016-.272.146-.608.439v-.065c.32-.228.56-.488.752-.78l-.608.487.56-.666c-.048-.082-.208.016-.528.341l.016-.065.288-.309a1.08 1.08 0 00.447-.488c.064-.146-.143.05-.431.31-.064.064-.144.097-.224.194l.703-.747.016-.098c-.064-.081-.527.455-.895.634zm-.831 2.894c-.128-.081.016-.276.096-.195l.351.26c.096.081 0 .228-.08.163l-.367-.228zm.144-.228c-.128-.081.016-.244.096-.178l.191.195c.096.097.032.178-.063.13l-.224-.147zm.735.716c-.096-.05-.144.016-.08.065.144.13.304.227.48.309.176.097.351.097.527.097.128 0 .192-.081.016-.114a3.428 3.428 0 01-.943-.357zm.08-.017c-.064-.065-.048-.13.032-.178l.416-.033c.08 0 .143.049.223.146l.192.228c.08.098.016.195-.064.163-.271-.098-.543-.195-.799-.326z" fill="#fff"/><path fill-rule="evenodd" clip-rule="evenodd" d="M16.789 18.132a.544.544 0 01.32-.277 6.979 6.979 0 001.15-.276c.112-.081.16-.065.144.065-.032.358-.08.667-.192.764v-.634l-.048.017c-.032.308-.08.552-.16.65l.017-.585h-.064l-.128.568.032-.503c0-.066-.016-.082-.064-.05-.08.586-.192.83-.304.911.112-.374.112-.634.096-.861l-.032-.017c-.032.31-.08.602-.192.813-.112-.179.096-.488.064-.78h.016l-.208.731c-.064 0-.048-.097.016-.276l.032-.423-.032.017c-.064.227-.112.39-.192.52l.032-.537-.143.39.015-.308-.175.08zm1.71-.455c.016-.13.144-.098.096.032l-.064.163H18.5v-.195zm-.032.487c.016 0 .016.033.016.082s-.016.081-.016.081-.016-.033-.016-.081c-.016-.05 0-.082.016-.082zm.048-.178c.016 0 .032.016.032.048 0 .017-.016.05-.032.05s-.048-.017-.048-.05c0-.032.032-.048.048-.048zm0-.716c.032 0 .064.049.064.098.016.065.016.114-.016.114-.016.016-.048-.033-.064-.098-.016-.049 0-.098.016-.114zm-.176-.341c.096.097.112.195.096.276-.016.114-.096.195-.096.114-.016-.098 0-.228-.08-.358-.048-.048.032-.081.08-.032zm-.847-.212c.016-.113.096-.016.096.05l-.032.194c-.032.033-.048.017-.08-.065l.016-.179zm-.4.618c-.095.065-.095.098.016.147l.048-.017v.017c0 .048.016.08.048.08.016 0 .048-.032.048-.08v-.033l.096-.016v.211c-.032.016-.064.016-.112.016 0-.016-.016-.032-.032-.032s-.048.016-.048.049l.016.016c-.016.016 0 .016.048.049l.768-.18c.223 0 .287-.178.223-.454.032-.098.016-.13-.064-.114l-.175-.016.095-.066c.144-.064.144-.097.017-.097l-.24-.033.191-.032c.064-.016.08-.081-.015-.114l-.208-.016.16-.033c.095-.08.047-.146-.144-.162.064-.082.064-.146-.016-.146-.032-.082-.144-.147-.096.016l.048.78c.016.081-.016.146-.096.179l-.576.081zm.432-.309c.032 0 .064.017.064.065 0 .05-.016.065-.064.065-.016 0-.048-.016-.048-.065 0-.048.032-.065.048-.065zm.464.244c.015 0 .015.017.015.017 0 .016-.015.032-.015.032s-.016-.016-.016-.032c0 0 0-.017.016-.017zm-.048-.146c.048-.016.08 0 .095.016.017.033-.015.065-.063.065-.048.016-.08 0-.096-.032-.016-.017.016-.05.064-.05zm-.528.504h.016V17.4l-.064.017.048.21zm.128-.049c.016 0 .032-.016.064-.016v-.228l-.096.017.032.227zm.144-.032c.016-.017.016-.017.032-.017v-.195l-.048.017.016.195zm.096-.05s.016 0 .032-.015c.08-.098.08-.147-.016-.163h-.016v.179zm1.79-11.071c-.96-.081-1.423.228-1.663.57a1.593 1.593 0 00-.351.942c.016.065.127-.065.271-.276l-.096-.033c.016-.065.064-.13.096-.195.016-.032.016-.097.08-.13s.112-.098.112-.13h-.08c.272-.325.64-.407 1.055-.39.112.016.224.016.32.032.064.017.112-.016.144-.032.032-.017.048-.065-.016-.065a2.714 2.714 0 00-1.087.048c.272-.178.64-.195 1.183-.162.224.016.24-.146.032-.179zm-1.679 6.26c.032.016.048.097.016.178-.016.065-.08.13-.112.114-.048-.016-.064-.098-.032-.162.048-.082.096-.147.128-.13zm-.815.34c.016 0 .032.066.032.115 0 .065-.016.114-.032.114s-.032-.05-.032-.114c-.016-.065 0-.114.032-.114zm.064.407a.816.816 0 01.32-.553c.16-.113.192-.08.064.082-.112.146-.192.341-.272.504-.032.065-.144.146-.112-.033zm.48-.894a.697.697 0 00-.368.309c-.064.146-.032.146.064.049.096-.114.224-.195.352-.277.047-.032.096-.113-.048-.08zm-.992.78c-.08.098-.063.147.064.082.224-.342.368-.57.496-.634l.384-.358c.303-.065.48-.39.527-.943l-.016-.065c-.144.39-.32.667-.56.813a2.289 2.289 0 00-.543.569c-.064.065-.064.146-.128.244-.048.097-.16.195-.224.293zm-.095-.243c-.064.13-.016.178.064.065.271-.374.447-.634.719-.862.256-.195.623-.569.767-1.04.096-.277-.016-.358-.08-.196-.144.423-.32.797-.591 1.025-.304.26-.64.552-.88 1.008zm-.032-.39c-.064.097-.064.194-.016.243.224-.081.143-.439.687-.715.064-.098.048-.13-.064-.098l-.511.374c.175-.276.351-.504.591-.569.16-.016.304-.097.448-.244.064-.13.032-.162-.064-.097-.304.211-.576.293-.816.488a1.312 1.312 0 00-.431.683l.176-.066zm-.032-.667c.096-.195.351-.325.703-.44.24-.08.432-.26.607-.47.192-.114.144-.017.096.113-.064.114-.111.146-.223.228a2.317 2.317 0 01-.512.293 1.354 1.354 0 00-.56.39c-.095.081-.143.048-.111-.114zm.543-.667c.176-.097.32-.211.432-.39.16-.227.224-.244.192 0a.757.757 0 01-.48.52c-.24.082-.304-.032-.144-.13zm.72-.536l.08-.423a.756.756 0 01.175-.439l.128-.358c.032-.146.096-.13.096.05l-.08.227c.064.032.032.097-.016.179-.016.08-.016.178-.096.195-.016.309-.064.569-.144.65-.143.163-.192.146-.143-.081zm-.544-.065l.192-.455c.048-.163.128-.26.224-.277l.255-.244c.064-.065.096.016.064.082l-.191.308c-.032.244-.128.472-.352.732-.048.049-.128.049-.08-.016l.224-.44-.288.375c-.08.097-.08.016-.048-.065zm-.32.179c.096-.277.144-.44.24-.52.128-.13.16-.114.08.032a1.063 1.063 0 00-.144.569c0 .244-.288.195-.176-.081zm-.032-.374c.016.097.016.065.064 0l.096-.293c.128-.098.288-.211.448-.406.064.097.192.016.383-.26.24-.114.352-.31.432-.537.064-.195.016-.228-.096-.098-.192.244-.32.342-.384.52-.223.066-.383.31-.639.44-.064.048-.096.113-.096.21-.128.05-.192.18-.208.424zm.032-.57a.077.077 0 01.096-.032c.016.016.016.065-.016.098-.016.048-.064.065-.096.032-.032-.016-.032-.065.016-.097zm1.28-2c.159-.194.35-.34.543-.422.223-.097.207.081.064.081-.112 0-.272.098-.544.44-.08.097-.16.016-.064-.098zm-1.535 2.39c-.032-.422.064-.666.255-.812.528-.325.72-.813.88-.797.175-.309.431-.618.75-.91.225-.163.272-.13.145.13-.336.488-.672 1.057-.96 1.22-.143.015-.24.097-.32.227l.209-.098c.096-.016.111.017.048.098-.176.081-.464.536-.528.244-.112.227-.304.195-.32.406l-.016.293c-.047.081-.096.081-.143 0zm2.062-3.072c.095.016.143.049.063.146-.255.098-.495.31-.719.586.016.097-.016.195-.144.276 0 .179-.096.26-.271.276l-.256.326c.064.08-.032.21-.224.39-.112.13-.16.097-.144-.114.144-.39.4-.943.528-.943.064 0 .064-.016.096-.146.016-.098.096-.065.08 0-.016.097.015.097.063.032.304-.488.608-.731.928-.829zm-.784.114c.208-.244.56-.407 1.231-.39.144.016.112.146-.016.146-.096-.016-.224.032-.32.065-.127.032-.271.049-.383.114-.224.13-.432.341-.623.634-.065.032-.08.016-.049-.065.224-.423.512-.65.8-.667l.016-.016c-.16-.033-.352.032-.64.309-.032 0-.048-.033-.016-.13zm.256-.358c.256-.162.544-.26.88-.211.207.016.207.146.095.146-.32-.049-.64-.032-.943.114-.128.065-.096 0-.032-.049zm1.598-.96c-.08-.097-.016-.162.112-.145.352.065.671.113.863.276.112.081.016.163-.064.098l-.24-.13c.016.097-.08.064-.223-.066-.096.098-.208.05-.336-.097l.08.227c.016.05-.032.05-.064.017l-.128-.18zm.496.196c-.048.033.016.114.048.146.047.05.095.017.08-.048-.017-.065-.08-.147-.128-.098zm.736.293c-.032-.017-.111-.065-.016-.082-.111-.065-.064-.162.016-.179.304-.016.56-.195.912.017l.16.195c.095.244.015.358-.128.195-.064-.098-.017-.195-.192-.276.096.178.16.357.16.552.271.26.015.31-.049.147l-.095-.488c.016.228.032.406 0 .406-.08 0-.032-.162-.064-.357-.016-.082-.048-.228-.096-.244-.192-.065-.384-.016-.528 0 .256-.016.432 0 .48.065a.42.42 0 01.064.358c-.064.097-.096.065-.096-.05l-.032-.146c-.016-.08-.096-.097-.224-.08-.08 0-.176.015-.272-.033zM17.78 15.32c.367.617.799 1.219 1.278 1.771.064.065.016-.146.064-.065.096.228.272.44.336.504.064-.065-.144-.26-.192-.487l.655.78c.064-.098-.32-.569-.639-.96l.048-.048.751.992.032-.016c-.112-.326-.463-.732-.687-1.09l.016-.081c.144.179.32.439.48.666.223.31.415.602.479.618.272.065-.655-.926-1.087-1.756l.016-.048c.512.78.959 1.495 1.455 1.82.064.033.096-.032.047-.097-.447-.537-.975-1.122-1.294-1.658l.016-.05c.48.586.735 1.253 1.662 1.822.064.032.096.097.144.049.208-.163-.8-.407-1.566-1.74l.015-.098c.288.39.336.52.592.797.368.407.943.894 1.039.813.096-.081-.831-.732-1.327-1.512l.016-.016c.384.552.943 1.22 1.742 1.642.112.065.065.049.208.049.352.016-.799-.57-1.39-1.236l.016-.065c.176.146.383.358.639.553.288.211.591.39.831.536.224.114.384.195.48.146.208-.097-.8-.471-1.055-.731.144.081.303.146.431.195.432.228.752.374.816.293.048-.065-.192-.195-.592-.342-.048-.049-.016-.065.096-.032.464.195.72.309.783.276.144-.049-.096-.146-.367-.325.351.146.64.293.799.244.064-.016-.192-.146-.416-.358.304.195 1.055.472.352-.032l.048-.017c.272.195.591.277.192-.048h.064c.223.195.351.325.191-.065.224.341.464.471.144-.017l.352.277c-.128.065-.112.097 0 .162.304.195.32.163.272 0 .032-.309-.08-.52-.288-.65-.224-.146-.224.016.048.439a.958.958 0 01-.24-.276c-.048-.098-.144-.147-.271-.147-.544.017-1.072.114-1.583.195-.384.065-.687 0-.831-.097-.144-.114-.192-.163-.112-.293.048-.097 0-.195-.064-.227l-.368-.748c.048.08.096.113.144.195.144.244.256.439.288.439-.064-.163-.256-.52-.4-.943.288.52.544.959.608.894-.032-.195-.272-.585-.496-.976l.144.147c.096.114.176.227.224.195-.192-.39-.384-.634-.592-.7-.32-.113-.511-.162-.48.05l-.159-.196-.176-.016c-.064.016.016.114.144.31l-.032.015-.192-.309c-.064-.032-.144-.065-.144 0l.096.212-.224-.244c-.095-.065-.223-.081-.223-.033l.32.537c-.064-.081-.144-.163-.224-.277-.128-.178-.224-.308-.384-.325-.144-.016.144.228.352.732l-.48-.683c-.048-.032-.24-.065-.256 0l.576.846c-.272-.31-.528-.57-.672-.862-.032-.033-.064-.033-.096-.033-.016-.016-.047 0-.063.017l.703.926c-.144-.13-.272-.276-.384-.39-.144-.211-.288-.357-.4-.536-.047-.065-.143-.033-.143-.017-.064.082.527.683.783 1.057-.352-.341-.64-.667-.88-1.057-.111-.065-.19-.065-.223 0-.032.065.72.797 1.007 1.252-.384-.422-.767-.813-1.087-1.252-.048-.065-.192-.065-.192 0 0 .114.64.716 1.167 1.447-.383-.422-.847-.975-1.039-1.105-.096-.017.224.39.96 1.252a9.178 9.178 0 01-1.008-1.09c-.096.082.304.602.895 1.252l-.927-.975c-.16-.082-.175-.082-.112.032zm3.916-.212c-.08-.114.032-.179.128-.033.191.31.351.586.48.895.063.146-.017.178-.08.048-.145-.357-.337-.617-.528-.91zm-.352-.114c-.064-.098.096-.146.208.016.272.374.495.748.671 1.138.096.228 0 .293-.096.082-.223-.472-.511-.862-.783-1.236z" fill="#fff"/><path fill-rule="evenodd" clip-rule="evenodd" d="M19.699 7.076a.781.781 0 00.32.65c0-.032-.097-.194-.176-.34-.064-.163-.096-.293-.144-.31zm.703 7.3c-.016-.341-.208-.585-.576-.861.017.08.24.276.384.52.144.244.144.293.192.341zm0-.341c-.048-.033-.08-.163-.192-.358-.112-.195-.304-.39-.32-.455.288.228.48.536.512.813zm-.048-.455c-.032-.033-.064-.13-.144-.277-.096-.146-.24-.309-.256-.358.24.18.384.407.4.635zm-.048-.456c0-.146-.112-.309-.272-.406.016.032.096.13.176.227.048.098.064.163.096.18zM20.13 6.72c-.064.195 0 .487.192.715.016-.049-.064-.228-.096-.39-.048-.163-.064-.31-.096-.325zm-2.03 7.527c-.176.016-.208-.016-.224-.195.08.081.144.114.224.195zm-.24-.309c.112.114.224.195.352.31a.223.223 0 00.176-.017c-.192-.195-.352-.309-.56-.52.016.081.032.162.032.227zm-.048-.325c.24.244.432.39.64.634.064.033.112.033.144 0-.272-.341-.512-.601-.768-.943-.016.114-.016.228-.016.31zm.048-.374c.304.358.592.65.896 1.04.095.05.16.05.191.017-.303-.39-.671-.83-1.023-1.268a.404.404 0 01-.064.146v.065zm.08-.293c.384.456.752.862 1.167 1.366a.19.19 0 00.16.017c-.048-.05-.32-.39-.368-.44-.335-.422-.527-.65-.91-1.105-.017.049-.017.114-.049.162zm.08-.243c.416.471.56.682 1.007 1.219.048.065.288.309.336.374.064.114.256.114.16.033-.08-.098 0-.017-.112-.18-.368-.455-.975-1.203-1.343-1.674-.016.098-.048.163-.048.228zm.048-.277c.016-.065.016-.13.032-.195.352.44 1.023 1.268 1.423 1.772.208.26.192.244.303.374 0 .065-.047.033-.127.017-.096-.114-.096-.098-.192-.244-.48-.586-1.007-1.252-1.439-1.724zm.032-.244c.016-.08.016-.178.032-.26.368.586.895 1.203 1.487 1.756-.048-.227-.784-.878-1.231-1.48a2.888 2.888 0 01-.224-.438c.016-.065.016-.13.016-.212.304.65.8 1.236 1.503 1.854-.08-.212-.8-.797-1.167-1.415a4.301 4.301 0 01-.304-.601v-.098c.304.634.847 1.285 1.503 1.854-.064-.212-.8-.813-1.167-1.415a5.412 5.412 0 01-.304-.618v-.113c.304.601.96 1.43 1.582 1.967-.064-.195-.895-.943-1.246-1.512-.144-.277-.256-.488-.304-.65v-.163c.256.601.895 1.414 1.535 1.95-.064-.194-.864-.86-1.183-1.414a3.048 3.048 0 01-.32-.682c0-.066 0-.13.016-.18.224.619.831 1.366 1.47 1.87-.063-.178-.799-.78-1.102-1.3a5.587 5.587 0 01-.352-.732c0-.065 0-.13.016-.195.192.602.767 1.35 1.406 1.853-.047-.178-.735-.731-1.038-1.219-.224-.374-.288-.618-.352-.78v-.033c.016-.065.016-.146.016-.227.128.601.671 1.398 1.343 1.934-.048-.146-.672-.699-.944-1.154-.255-.439-.303-.683-.383-.83.192-1.69.895-2.682 1.918-2.86l.016.016c-.032.195 0 .439.112.682.016-.048-.032-.276-.048-.487v-.18l.096.017c.016.228.096.455.192.488-.08-.13-.096-.293-.096-.44l.128.033c0 .244.08.52.191.52-.096-.146-.096-.324-.096-.487l.017.016a.504.504 0 00.095.228c.048-.065.016-.179-.016-.31.128-.064.272-.064.432.05.064.065.032.097-.048.097h-.08l.192.082c.016.016.048.048-.064.065l-.064.065.24.016c.08.032.064.065.048.097l-.064.065c.208 0 .431.05.687.196-.016.097-.112.08-.303-.017.047.114.223.13.223.195-.016.13-.303.017-.431.18l.303.015c.064.05.048.082-.064.082.16.195.288.26.336.114.048-.098.096-.098.144 0 .192.113.224.13.112.146l-.192.032.224.033c.064.016.064.065.016.097-.144.017-.16.05.112.066.112.065.16.113.112.162-.24.016-.224.049.064.065.064.033.096.081.08.114-.144.032-.128.065.063.065.017.032.048.065.017.098-.176.048-.144.065.063.065.016.08.144.065.192.178.192-.032.272.098.096.098l-.016.032c.272.017.384.082.352.244-.016.065-.384-.146-.224.423l.064.065c.096.016-.016-.26.16-.228.016.017.048.098.016.228s-.112.195-.24.098c-.112-.082-.192-.163-.176-.26l.016-.18c-.128.017-.144-.064-.16-.194 0-.017-.048-.017-.032-.05-.207-.032-.303.033-.351.196-.016.065-.064.016-.08-.049.016-.032-.064.016-.112-.016-.032 0-.016-.081-.064-.065-.016 0-.016.032-.064.032-.032-.016-.016-.097-.096-.016-.048.049-.064.049-.064-.016.016-.065.064-.179-.064-.016-.048.016-.064.016-.08-.033-.064-.195-.112-.211-.144-.032-.032.065-.064.08-.064-.017-.064-.309-.08-.309-.064-.016-.015.13-.047.114-.111-.033-.08-.243-.112.017-.176-.097-.08-.146-.016-.341-.16-.39l.08.406c0 .065-.096.065-.096-.016-.048-.276-.224-.732-.192-.585l.096.569c.016.048-.112.016-.144-.05l-.144-.698c-.032-.195-.032.374.048.618 0 .032-.096.032-.08-.017 0-.065-.095-.731-.143-.682-.08.08.143.747-.033.65-.015-.016-.08-.683-.095-.683-.016 0 0 .65-.016.634-.192-.228.016-.862-.112-.894-.016 0-.08.78-.096.748.08.601.56.618.511.796l-.335-.178c.096.178.224.357.32.569-.096.032.015.178.08.244-.097-.017-.08.065.111.243.048.033.064.065.048.098-.24-.065-.272-.065.128.26-.24-.033-.256-.016.016.179a.288.288 0 01.112.179c.016.048-.032.016-.064.016-.048-.016-.112-.065-.144-.081-.064-.017-.016.08.304.325.08.065.112.13.064.146-.384-.244-.368-.195.064.195.096.163.112.228.08.26-.352-.292-.576-.487.016.13.095.098.127.18.048.195-.592-.455-.272-.146.127.277.016.016 0 .065-.016.049-.575-.44-.591-.325.016.309.016.065.064.097.032.146-.016.016-.063 0-.08-.016-.415-.39-.383-.31.096.341.064.098.096.195-.016.146-.511-.601-.671-.731-.016.196.064.113.08.178-.016.146-.48-.65-.48-.57-.016.13.032.081.032.097 0 .081-.431-.52-.559-.65-.015.114.063.146.063.163-.017.098-.511-.65-.527-.57-.015.097.047.081.063.13-.017.098-.59-.683-.59-.667-.015.08.015.196.015.18-.096.082-.064-.065-.064-.13-.112-.195-.368-.455-.416-.423.016.163-.048.049-.096.049-.176-.017-.384-.504-.416-.504-.112-.016l-.208-.032a.512.512 0 00-.112-.147c-.351-.357-.48-.39-.128.065.016.017-.016.017-.016.033l-.4-.065c-.047 0-.095-.016-.143-.081-.176-.31-.272-.423-.56-.7.016.098.24.293.416.586.048.195-.16.097-.224.065-.128-.179-.176-.195-.351-.423-.576-.683-1.135-1.382-1.583-1.87zm1.39-4.926c.033.016.08.179.177.358.095.195.223.358.24.423-.272-.228-.416-.537-.416-.78zm-.16.195c.049.05.08.195.193.407.112.211.303.422.303.487-.32-.26-.495-.601-.495-.894zm-.159.212c.064.048.096.227.224.455.128.227.352.488.352.553-.368-.293-.576-.683-.576-1.008zm-.144.211c.016.358.272.813.656 1.122-.016-.081-.272-.358-.416-.618-.144-.26-.176-.455-.24-.504zm-.128.211c.016.39.304.878.752 1.236-.016-.098-.32-.39-.48-.683-.16-.293-.208-.488-.272-.553zm-.111.228c.031.439.351.96.83 1.35-.015-.098-.367-.423-.543-.748-.192-.326-.224-.537-.287-.602zm-.112.228c.048.487.4 1.04.927 1.463-.016-.114-.4-.472-.608-.813-.192-.342-.24-.57-.32-.65zm-.096.227c.048.52.431 1.122 1.007 1.577-.032-.13-.448-.504-.672-.878-.207-.374-.255-.618-.335-.699zm-.08.228c.048.553.48 1.203 1.087 1.69-.048-.146-.496-.552-.736-.959-.24-.39-.271-.634-.351-.731zm-.096.227c.08.586.56 1.334 1.215 1.854-.048-.146-.576-.634-.831-1.073-.24-.423-.288-.667-.384-.78zm1.518-2.308c.032.016.08.146.128.276.048.114.112.244.112.277a.694.694 0 01-.24-.553zm3.005 3.089c-.127-.13-.207.016-.031.195.143.146.303.098.271.049l-.24-.244zM22 8.556c-.016 0 .016.146.016.211s.016.114.064.179c.048.065.064.065.064.049-.048-.13-.096-.244-.096-.358 0-.049-.032-.081-.048-.081zm-.16-.179c-.015 0 .017.163.017.244 0 .065.015.146.064.211.047.065.063.082.063.065-.048-.162-.096-.292-.096-.422-.016-.065-.047-.098-.047-.098zm-.175-.179c-.016-.016.016.179.016.277 0 .097.016.178.064.26.048.065.064.097.064.065-.032-.18-.096-.325-.096-.488 0-.081-.016-.098-.048-.114zm-.16-.179c-.016-.016 0 .195 0 .31a.49.49 0 00.064.292c.064.081.08.097.064.065-.032-.211-.08-.39-.08-.553 0-.081-.032-.097-.048-.114zm-.16-.179c-.016-.016 0 .228-.016.358a.515.515 0 00.064.31c.048.097.08.13.064.097-.032-.228-.08-.44-.064-.618 0-.098-.032-.13-.048-.147zm-.176-.178c-.016-.017 0 .244-.016.39a.592.592 0 00.064.358c.048.113.064.146.064.097-.032-.26-.08-.488-.064-.683 0-.114-.016-.146-.048-.162zm-.144.016c-.016-.016-.016.195-.016.309a.476.476 0 00.048.292c.032.098.064.114.064.082-.016-.212-.064-.39-.048-.553-.016-.098-.032-.114-.048-.13zm-.127 0c-.017-.016-.017.162-.032.244a.379.379 0 00.015.227c.032.082.048.098.048.065-.016-.162-.031-.308-.016-.439.016-.065-.015-.08-.015-.097zM9.02 3.45c.352.44.672.846 1.04 1.334 0 .081-.033.13-.129.13-.383-.553-.671-.992-.959-1.414-.048-.082.016-.098.048-.05zm1.742 3.009c.032.097-.032.146-.095.048-.144-.179-.112-.39.048-.601.175-.212.383-.212.591-.065.112.097.08.097-.064.097-.4.017-.543.228-.48.52zm.4-.18c-.16-.064-.208.017-.176.196 2.302 3.3 5.787 8.129 9.895 13.82l-.016.08.352.196-.112-.472-.064.049c-3.181-4.504-6.842-9.804-9.879-13.868zm5.578.862c0-.08.303-.292.687-.569.175-.146.335-.195.48-.195.047.017.111.017.207.017.096.065.064.097-.048.13-.048-.033-.096-.05-.144-.017-.096.017-.112.098-.192.114l-.047-.065c-.144.098-.224.358-.336.488l.016-.13c-.064.016-.112.162-.224.244.016-.098-.016-.147-.048-.147-.176.114-.304.18-.352.13zm-4.556 6.13c.096 0 .192.032.192.065 0 .048-.096.081-.192.081-.112 0-.208-.033-.208-.081 0-.017.08-.065.208-.065zm.783-.163c.064-.097.144-.146.176-.13.016.033-.016.146-.064.228-.064.097-.144.162-.176.13-.032-.017 0-.114.064-.228zm-.256.146c.048-.08.096-.13.128-.097.016.016 0 .098-.048.195-.064.081-.112.13-.144.098-.016-.033 0-.114.064-.195zm-.24.05a.443.443 0 01.096-.098c.016.016 0 .097-.032.162-.048.065-.096.098-.112.082 0-.017 0-.098.048-.147zm-3.82-.83l-.048.13c.064.016.096-.065.16-.097l-.048.211c.064.016.224-.163.352-.244l-.096.195c.096 0 .176-.146.255-.227l-.048.227c.128-.016.208-.179.304-.276l-.016.211c.096-.016.16-.146.256-.227l.048.146c.08.016.128-.098.192-.146l.032.146.175-.179.032.146.192-.065.064.082.16-.082v.18l.224-.098.016.113.16-.097v.146l.192-.049v.147l.271-.114-.096.211.24-.146-.032.162.272-.113-.144.244c.176.016.224-.114.352-.18l-.08.228c.176-.032.32-.178.48-.357.031.065.015.146-.112.357.191-.08.271-.211.351-.357l-.064.244c.112-.017.224-.098.336-.277l-.016.228a.601.601 0 00.208-.277c.112.05.24-.016.287-.21.064-.18.016-.229-.127-.18-.496.358-1.151.44-2.11.146-.624-.178-1.263-.195-1.919-.227-.303 0-.543.049-.655.325zm1.455-2.52c.048-.081.143-.146.255-.228l.016.098.272-.098.016.098.304-.163c-.176.228-.208.31-.144.31.048 0 .272-.26.336-.196-.144.228-.016.163.24-.049.063.017-.096.196-.065.212.016.016.112-.049.304-.179.048-.033.144-.146.176-.098.016.065-.064.098-.096.147-.192.227-.144.195.192-.017.048-.016.112-.08.16-.065-.224.293-.128.228.192.033.048-.016.096-.098.16-.049-.4.358-.336.407.191.147-.24.276-.192.292.192.048.032-.016.08 0 .128-.016-.176.179-.192.309-.112.26.128-.065.288-.13.368-.097-.16.162-.144.227.064.195.064.016 0 .097-.208.244-.032.065-.064 0-.096-.147-.016.082-.064.082-.096.033l-.048.309-.064-.017v-.178c-.032-.05-.064-.05-.096 0l-.064.227-.096-.065a.54.54 0 01-.16.228c-.063-.098-.111-.065-.143.016-.048.016-.064-.016-.112-.016-.032.097-.064.13-.128.065-.096.065-.176.114-.272.211l-.048-.114c-.08.114-.144.196-.192.163l-.08-.081-.127.211-.208.065c0 .065.08.065.224.033.191-.017.543-.098.767-.18.224-.064.48-.097.767-.227.224-.097.48-.292.72-.423.063.05.015.163-.48.553l-.256-.016.128.179c-.064.065-.096.081-.16.065l-.208-.098.064.228c-.144 0-.223-.195-.351-.098l.064.18-.304-.098.064.211-.272-.114-.064.114c-.08 0-.128.016-.144.065.608.098 1.279-.114 1.966-.455.032-.017.048.016.048.065-.064.276-.255.52-.56.748l.097-.374c-.208.097-.432.553-.608.601l.192-.487-.543.455c-.048-.065.016-.195.144-.358-.16 0-.432.39-.48.358-.112-.065.096-.18.144-.26-.144-.017-.256.13-.384.195-.016-.065.064-.147.208-.277l-.448.212c0-.082.176-.147.208-.277-.208.147-.383.228-.431.228l.144-.228-.384.212.24-.26-.416.195.112-.228-.304.195.128-.244c-.144.13-.288.212-.368.212.08-.098.144-.196.128-.244-.144.114-.271.195-.335.195l.064-.195a.97.97 0 01-.384.244l.144-.228c.016-.033.016-.081-.032-.049l-.304.26c.064-.13.096-.211.064-.244l-.224.114.016-.13-.255.277c-.032-.017.015-.082.047-.212l-.271.18c.144-.277.367-.472.671-.57.368-.114.655-.13.88-.162.399-.066.655-.098.974-.244.144-.065.32-.13.512-.277.096-.065.064-.097-.048-.081l-.416.016v-.195l-.16.228-.032-.228-.143.39-.064-.439-.096.488-.064-.471-.192.552-.048-.569-.096.57-.096-.586-.08.585-.112-.552-.048.52-.143-.537-.016.57-.176-.537-.032.488-.112-.472-.048.423-.096-.39-.064.422c-.176-.325-.24-.601-.128-.748.176-.195.416-.243.64-.21zm1.31-1.284c.032 0 .064.048.096.13a.843.843 0 01.016.146c-.032.016-.064-.049-.096-.13-.032-.049-.032-.13-.016-.146zm-1.167-.13c.176-.277.304-.358.4-.147.112-.374.24-.406.4-.081.224 0 .271.341.224.845l-.208-.569v.358c-.128-.601-1.023-.244-.816-.406zm3.82-2.033c.257.017.512.114.752.26.016.033.016.066-.016.033a.462.462 0 00-.24-.098c.016.098.016.147-.032.147-.095-.163-.175-.195-.24-.147-.015.017-.031.017-.063.017-.064-.147-.096-.147-.144-.098-.08-.081-.08-.114-.016-.114zm-1.31.065c-.064.033-.064.065-.016.065.08-.065.16-.08.272.017 0-.147.064-.147.192.048-.048-.195 0-.227.191.05 0-.147.017-.18.144.08.032.05.064.05.08.017-.064-.277-.032-.26.112.016.048.065.064.065.064.016-.016-.195.064-.146.24.098.048.065.064.081.08.016-.032-.146.032-.146.192.049.111-.016.271.081.48.276.015.033.047.049.063.033-.112-.212.016-.13.208 0 .112-.065.128-.098.064-.114-.384-.146-.72-.293-.943-.472-.272-.21-.384-.146-.688-.357-.271-.081-.511-.016-.735.162zm-.56.374c-.143.05-.143.098-.015.13.064.017.096.017.144 0 .08-.016.111 0 .143.065.064.114.128.163.192.13.032-.032-.224-.227-.096-.227h.08c.192.195.384.293.368.26l-.08-.211c-.016-.065.08-.033.128.016l.272.228c.031.048 0-.033-.048-.196-.016-.048.048-.048.095 0 .16.163.352.44.352.342v-.098c0-.048.064-.048.096 0 .096.114.224.228.208.18l-.016-.098c-.016-.065.032-.065.096 0l.272.227c.063.049.095.016.08-.016l-.049-.065c-.031-.065-.015-.065.065-.016l.24.178c.047.033.047-.016-.017-.113h.144c.016.081.08.097.224.162.032.017.048-.016.112-.048l.335-.098c.096-.033.096-.098 0-.081-.48.13-.99-.114-1.534-.423-.735-.39-1.31-.39-1.79-.228zm4.748.26c.016.017 0 .065-.032.098s-.08.049-.096.033c-.016-.017 0-.066.032-.098.032-.033.064-.033.096-.033zm.368.098c-.08-.065-.112.081.016.033l.192-.18c.096-.162.032.05.096.033.064-.016.175-.227.143-.309l.16-.081c.096-.081.064-.114-.064-.098a2.117 2.117 0 00-.431.423l-.112.179z" fill="#fff"/></svg>