<svg width="24" height="25" fill="none" xmlns="http://www.w3.org/2000/svg"><path d="M7.875 15.307c-1.068 0-1.933.834-1.933 1.864 0 1.03.865 1.864 1.933 1.864s1.933-.834 1.933-1.864c0-1.03-.865-1.864-1.933-1.864zm0 2.674c-.464 0-.84-.363-.84-.81 0-.448.376-.81.84-.81.464 0 .84.362.84.81 0 .448-.376.81-.84.81zm10.193-2.674c-1.068 0-1.933.834-1.933 1.864 0 1.03.865 1.864 1.933 1.864s1.933-.834 1.933-1.864c0-1.03-.865-1.864-1.933-1.864zm0 2.674c-.464 0-.84-.363-.84-.81 0-.448.376-.81.84-.81.464 0 .84.362.84.81 0 .448-.376.81-.84.81zm-8.018-8.4a.485.485 0 01-.493.475H2.762a.485.485 0 01-.492-.475v-.284c0-.261.221-.475.492-.475h6.795c.271 0 .493.214.493.475v.284z" fill="#C62306"/><path d="M21.856 12.361c-.71-.178-1.115-.29-1.393-.808l-.93-1.816c-.279-.518-1.002-.942-1.607-.942h-1.273s-.171.003-.171-.163V7.108c0-.59-.347-1.074-1.084-1.074H5.024c-1.056 0-1.557.484-1.557 1.074v.955s0 .284.285.284h5.805c.543 0 .985.426.985.95v.285c0 .523-.442.949-.985.949H3.752s-.285-.023-.285.274v.328c0 .261.371.261.371.261h3.908c.543 0 .985.426.985.95v.285c0 .523-.442.949-.985.949H3.9s-.433-.008-.433.325v2.307c0 .59.501 1.074 1.114 1.074h.615c.14 0 .16-.075.16-.113 0-1.339 1.13-2.428 2.52-2.428 1.388 0 2.518 1.09 2.518 2.428 0 .038-.011.113.096.113h4.965c.098 0 .094-.08.094-.113 0-1.339 1.13-2.428 2.519-2.428 1.389 0 2.519 1.09 2.519 2.428 0 .038-.001.113.06.113H21.9c.606 0 1.101-.478 1.101-1.061v-2.017c0-1.697-.556-1.697-1.144-1.845zm-2.095-.094h-3.133c-.13 0-.146-.122-.146-.122V9.63s-.008-.097.159-.097h.894c.538 0 1.181.378 1.43.839l.827 1.616c.035.065.072.123.112.175.03.038-.02.105-.143.105z" fill="#C62306"/><path d="M8.238 12.629a.485.485 0 01-.492.474H1.492A.485.485 0 011 12.63v-.285c0-.261.222-.475.492-.475h6.254c.27 0 .492.214.492.475v.285z" fill="#C62306"/></svg>