<svg width="24" height="25" fill="none" xmlns="http://www.w3.org/2000/svg"><path fill-rule="evenodd" clip-rule="evenodd" d="M21.77 5.034H8.51a.714.714 0 00-.494.198l-.901.876-.902-.876a.714.714 0 00-.494-.198h-3.49c-.769 0-1.396.608-1.396 1.354V18.57c0 .747.627 1.353 1.396 1.353h3.49a.714.714 0 00.494-.197l.902-.876.901.874a.71.71 0 00.494.2h13.26c.771 0 1.397-.607 1.397-1.354V6.388c0-.746-.626-1.354-1.396-1.354zM6.418 17.216v-1.353h1.395v1.353H6.417zm0-2.707v-1.353h1.395v1.353H6.417zm0-2.707V10.45h1.395v1.353H6.417zm0-2.707V7.742h1.395v1.353H6.417zm13.441-1.579h-2.034V13.5l-4.502-5.984h-1.736v9.926h2.034v-5.956l4.502 5.956h1.736V7.516zm-16.543 0a.827.827 0 00-.827.827v8.272c0 .457.37.827.827.827h.413c.457 0 .827-.37.827-.827V8.343a.827.827 0 00-.827-.827h-.413z" fill="#C62306"/></svg>