<svg width="24" height="25" fill="none" xmlns="http://www.w3.org/2000/svg"><path fill-rule="evenodd" clip-rule="evenodd" d="M2.941 5.034a2.059 2.059 0 00-2.059 2.06v9.882a2.06 2.06 0 002.06 2.059h18.117a2.059 2.059 0 002.059-2.06V7.094a2.059 2.059 0 00-2.06-2.059H2.942zm8.403 11.042l.483-.486a.83.83 0 000-1.17L6.638 9.193l1.766-1.779a.414.414 0 00-.29-.706L3.345 6.7a.823.823 0 00-.822.828l.008 4.807a.41.41 0 00.7.292l1.766-1.78 5.188 5.229c.32.323.84.323 1.16 0zm10.123.465a.824.824 0 01-.822.828l-4.771-.008a.414.414 0 01-.29-.705l1.766-1.78-5.188-5.228a.832.832 0 010-1.169l.483-.486a.816.816 0 011.16 0l5.188 5.228 1.766-1.779a.41.41 0 01.7.292l.008 4.807z" fill="#C62306"/></svg>