<svg width="21" height="20" fill="none" xmlns="http://www.w3.org/2000/svg"><path d="M14.15 6.218h1.577l-2.339-3.89a.69.69 0 00-.931-.236.646.646 0 00-.244.902l1.936 3.224zM8.795 2.994a.649.649 0 00-.244-.902.693.693 0 00-.932.236L5.28 6.222h1.578l1.937-3.228zm9.545 4.417H2.657c-.64 0-1.157.502-1.157 1.121v1.243c0 .62.517 1.121 1.157 1.121h.362l1.116 5.865c.14.69.79 1.239 1.467 1.239h9.563c.677 0 1.327-.548 1.467-1.24l1.124-5.867h.587c.64 0 1.157-.502 1.157-1.121V8.529c-.004-.616-.521-1.118-1.16-1.118zm-10.454 8.39a.643.643 0 01-.655.634.643.643 0 01-.654-.634v-3.547c0-.362.303-.634.654-.634.374 0 .655.294.655.634V15.8zm2.099 0a.643.643 0 01-.655.634.643.643 0 01-.654-.634v-3.547c0-.362.303-.634.654-.634.351 0 .655.294.655.634V15.8zm2.11 0c0 .34-.281.634-.655.634a.643.643 0 01-.654-.634v-3.547c0-.34.303-.634.655-.634.35 0 .653.272.653.634V15.8zm2.098 0c0 .34-.28.634-.654.634a.643.643 0 01-.654-.634v-3.547c0-.34.281-.634.654-.634.351 0 .655.272.655.634V15.8z" fill="#C62306"/></svg>