<svg width="50" height="50" fill="none" xmlns="http://www.w3.org/2000/svg"><path d="M33.282 16.443c1.794 0 3.253-1.445 3.253-3.222 0-.143-.01-.283-.029-.421l.377-.008c.438-.008.91-.31 1.098-.702l.311-.649c.117-.244.111-.499-.017-.699-.128-.2-.357-.315-.632-.315l-2.735.006A3.257 3.257 0 0033.282 10c-1.794 0-3.254 1.445-3.254 3.221 0 1.777 1.46 3.222 3.254 3.222zm7.575 8.37l-3.795-6.832c-.267-.48-.6-.857-1.462-.857h-3.87c-.538 0-.971.395-1.074.502l-2.075 2.162c-.336.35-.678.994-.777 1.467l-.855 4.046a1.134 1.134 0 00-.021.17l-2.163 8.266H12.264c-.63 0-1.142.506-1.142 1.13 0 .27.095.515.253.71-.238.397-.375.86-.375 1.355 0 1.472 1.21 2.67 2.696 2.67 1.487 0 2.697-1.198 2.697-2.67 0-.328-.06-.643-.17-.933h5.046c-.11.29-.17.605-.17.933 0 1.472 1.209 2.67 2.696 2.67s2.696-1.198 2.696-2.67c0-.45-.113-.875-.313-1.247.332-.23.586-.57.69-.972l2.274-8.687c.058-.09.104-.189.135-.293l.926-3.12c.063-.214.216-.495.385-.73v5.194l-2.527 10.73a1.796 1.796 0 001.283 2.126l.027.007c.148.04.3.06.45.06a1.69 1.69 0 001.654-1.305l2.307-9.793.9 2.42c.247.666.519 1.826.593 2.532l.482 4.61c.085.815.734 1.406 1.543 1.406.132 0 .266-.016.398-.048l.027-.006c.917-.22 1.567-1.153 1.449-2.08l-.716-5.624a13.857 13.857 0 00-.684-2.702l-1.026-2.649c-.008-.022-.019-.044-.029-.066v-3.948l1.934 3.418a1.096 1.096 0 001.55.38l.255-.163a1.2 1.2 0 00.399-1.569zM23.795 36.042c.496 0 .9.399.9.89 0 .49-.404.89-.9.89a.896.896 0 01-.9-.89c0-.491.404-.89.9-.89zm-10.099 1.78a.896.896 0 01-.899-.89c0-.491.404-.89.9-.89.495 0 .899.399.899.89 0 .49-.404.89-.9.89z" fill="#696969"/><path d="M12.018 31.974h11.32a.835.835 0 00.837-.83V23.54a.834.834 0 00-.837-.83h-11.32a.835.835 0 00-.837.83v7.604c0 .458.376.83.837.83z" fill="#696969"/></svg>