<svg width="50" height="50" fill="none" xmlns="http://www.w3.org/2000/svg"><path d="M24.44 20.831a.396.396 0 00.623 0l2.555-3.246a.395.395 0 00-.312-.64h-1.003v-5.686a.258.258 0 00-.26-.259h-2.582a.258.258 0 00-.26.26v5.685h-1.003a.395.395 0 00-.312.64l2.555 3.246z" fill="#696969"/><path d="M36.988 22.457H34.41L31.216 13.9a1.033 1.033 0 00-1.332-.605 1.033 1.033 0 00-.606 1.332l2.93 7.836H17.297l2.929-7.836a1.033 1.033 0 00-.606-1.332 1.033 1.033 0 00-1.332.605l-3.2 8.557h-2.571c-.837 0-1.517.68-1.517 1.517v2.52c0 .835.68 1.516 1.517 1.516h1.124l1.793 9.15c.213 1.027 1.205 1.84 2.232 1.84h14.178c1.027 0 2.018-.813 2.232-1.84l1.793-9.15h1.124c.837 0 1.517-.68 1.517-1.517v-2.52a1.52 1.52 0 00-1.522-1.516zM20.952 35.581a.992.992 0 11-1.983 0v-5.553a.992.992 0 111.983 0v5.553zm3.189 0a.992.992 0 11-1.984 0v-5.553c0-.565.462-.992.992-.992s.992.461.992.992v5.553zm3.206-.006a.992.992 0 11-1.984 0v-5.559c0-.53.462-.991.992-.991s.992.426.992.992v5.558zm3.183 0a.992.992 0 11-1.984 0v-5.559a.992.992 0 111.984 0v5.559z" fill="#696969"/></svg>