<svg width="50" height="50" fill="none" xmlns="http://www.w3.org/2000/svg"><path fill-rule="evenodd" clip-rule="evenodd" d="M39.805 23.334c.57 1.064 1.4 1.294 2.852 1.659l.255.061c1.106.26 2.088.49 2.088 3.728v4.14c0 1.2-1.014 2.18-2.254 2.18h-2.564c-.124 0-.124-.149-.124-.228v-.003c0-2.75-2.314-4.987-5.158-4.987-2.844 0-5.158 2.237-5.158 4.987v.007c0 .071 0 .224-.193.224H19.38c-.2 0-.198-.13-.196-.21v-.021c0-2.75-2.314-4.987-5.158-4.987-2.844 0-5.158 2.237-5.158 4.987 0 .077-.042.231-.328.231H7.28c-1.254 0-2.28-.993-2.28-2.205V14.205C5 12.993 6.026 12 8.188 12h21.244c1.51 0 2.22.992 2.22 2.205v3.13c0 .34.35.334.35.334h2.607c1.24 0 2.72.87 3.29 1.934l1.906 3.731zM38.367 24.8h-6.415c-.265 0-.3-.25-.3-.25v-5.167s-.015-.199.325-.199h1.83c1.104 0 2.421.775 2.928 1.722l1.696 3.32c.072.133.148.252.23.358.06.079-.041.216-.294.216zm-24.34 6.245c-2.187 0-3.959 1.712-3.959 3.827 0 2.114 1.772 3.827 3.959 3.827 2.187 0 3.958-1.713 3.958-3.827 0-2.115-1.771-3.827-3.958-3.827zm0 5.49c-.951 0-1.721-.744-1.721-1.663 0-.92.77-1.664 1.72-1.664.951 0 1.722.744 1.722 1.664 0 .919-.77 1.663-1.721 1.663zm20.873-5.49c-2.186 0-3.958 1.712-3.958 3.827 0 2.114 1.772 3.827 3.958 3.827 2.188 0 3.959-1.713 3.959-3.827 0-2.115-1.772-3.827-3.959-3.827zm0 5.49c-.95 0-1.72-.744-1.72-1.663 0-.92.77-1.664 1.72-1.664s1.722.744 1.722 1.664c0 .919-.771 1.663-1.722 1.663zM22.368 16.203a.3.3 0 01.284-.203h3.898a.3.3 0 01.276.416l-5.56 13.315a.3.3 0 01-.554 0l-5.54-13.316A.3.3 0 0115.45 16h3.897a.3.3 0 01.284.204l1.075 3.2a.3.3 0 00.568.002l1.094-3.203z" fill="#fff"/></svg>