<svg width="160" height="36" fill="none" xmlns="http://www.w3.org/2000/svg"><path d="M36.063 6.292c-5.192 0-9.368 4.084-9.368 9.162 0 5.078 4.176 9.162 9.368 9.162.508 0 1.016-.055 1.524-.11V17.55c-.451.276-.96.497-1.524.497-1.467 0-2.652-1.159-2.652-2.594 0-1.435 1.185-2.594 2.652-2.594 1.468 0 2.653 1.159 2.653 2.594v9.162h6.773v-9.162c-.057-5.078-4.233-9.162-9.425-9.162zm25.002 0v7.12c-.96 0-1.636.165-1.975.552-.339.331-.62 1.048-.677 2.097-.339 3.477-1.694 6.071-4.12 7.506-1.298.718-3.104 1.104-5.475 1.104h-.96v-7.175h.34c1.128 0 1.918-.22 2.37-.662.451-.442.733-1.214.846-2.373.113-1.822.283-3.257.508-3.974.226-.718.79-1.49 1.524-2.208 1.355-1.27 3.217-1.932 5.644-1.932h1.975v-.055zM70.321 0v24.616h-6.885V0h6.885zm9.99 6.292l-2.935 6.623 5.135 11.756h-7.618l-4.29-11.756 3.33-6.623h6.377zm12.021 0c-5.193 0-9.369 4.084-9.369 9.162 0 5.078 4.176 9.162 9.369 9.162 5.192 0 9.368-4.084 9.368-9.162.057-5.078-4.176-9.162-9.368-9.162zm0 11.7c-1.468 0-2.653-1.158-2.653-2.593s1.185-2.594 2.653-2.594c1.467 0 2.652 1.159 2.652 2.594 0 1.49-1.185 2.594-2.652 2.594zm22.067 2.374c0 2.373-1.976 4.25-4.403 4.25-2.426 0-4.345-1.932-4.345-4.25s1.975-4.25 4.345-4.25c2.427-.055 4.403 1.877 4.403 4.25zm12.811 4.25h-7.506V0h9.594c2.935 0 5.192.718 6.829 2.153 1.806 1.6 2.709 3.587 2.709 6.016 0 2.483-1.129 4.58-3.33 6.292l4.289 10.155h-7.844l-3.612-7.948V9.99h.564c1.58 0 2.37-.662 2.37-1.987 0-1.16-.903-1.766-2.709-1.766h-1.354v18.38zM160 0v15.344c0 2.815-.847 5.077-2.596 6.733-1.693 1.656-3.669 2.54-6.547 2.54-2.822 0-5.361-.829-6.829-2.43-1.524-1.655-2.257-3.973-2.257-7.064V0h7.506v15.068c0 1.49.508 2.263 1.637 2.263 1.072 0 1.636-.773 1.636-2.263V0H160zM17.665 0l-3.443 9.99L10.836 0H0l14.222 33.889L28.501 0H17.665zm16.591 30.776c0 .678-.118 1.273-.355 1.786a2.67 2.67 0 01-1.016 1.178c-.437.273-.942.41-1.514.41-.566 0-1.07-.137-1.515-.41a2.743 2.743 0 01-1.026-1.173c-.24-.507-.36-1.091-.364-1.753v-.39c0-.674.12-1.27.36-1.786.243-.516.583-.91 1.02-1.183a2.799 2.799 0 011.515-.413c.569 0 1.072.136 1.51.408.44.27.781.66 1.02 1.17.24.506.362 1.096.365 1.771v.385zm-1.212-.361c0-.767-.147-1.354-.441-1.763-.291-.408-.705-.613-1.242-.613-.524 0-.934.205-1.232.613-.294.406-.444.98-.45 1.725v.399c0 .76.148 1.348.446 1.762.3.415.715.623 1.246.623.537 0 .949-.203 1.236-.608.291-.406.437-.998.437-1.777v-.361zm9.07 1.387c-.07.738-.345 1.315-.824 1.73-.48.411-1.117.617-1.913.617-.556 0-1.046-.13-1.471-.39a2.6 2.6 0 01-.978-1.116c-.23-.481-.35-1.04-.36-1.677v-.646c0-.653.117-1.227.35-1.725.234-.497.568-.88 1.002-1.15.438-.269.943-.403 1.515-.403.77 0 1.39.207 1.86.622.47.415.742 1.001.82 1.758h-1.209c-.057-.497-.204-.855-.44-1.074-.234-.221-.578-.332-1.031-.332-.527 0-.933.191-1.218.575-.28.38-.425.939-.431 1.677v.613c0 .747.134 1.317.403 1.71.271.392.667.589 1.188.589.476 0 .834-.106 1.074-.318.24-.213.391-.566.455-1.06h1.208zm7.954 2.252H48.86V30.98h-3.12v3.074h-1.213v-6.917h1.213v2.879h3.12v-2.88h1.208v6.918zm8.332-3.278c0 .678-.118 1.273-.354 1.786-.237.51-.575.903-1.017 1.178-.437.273-.942.41-1.514.41-.566 0-1.07-.137-1.515-.41a2.741 2.741 0 01-1.025-1.173c-.24-.507-.361-1.091-.365-1.753v-.39c0-.674.12-1.27.36-1.786.243-.516.583-.91 1.02-1.183a2.808 2.808 0 011.515-.413c.57 0 1.072.136 1.51.408.441.27.781.66 1.021 1.17.24.506.361 1.096.364 1.771v.385zm-1.212-.361c0-.767-.147-1.354-.441-1.763-.291-.408-.705-.613-1.242-.613-.524 0-.934.205-1.231.613-.294.406-.445.98-.451 1.725v.399c0 .76.149 1.348.446 1.762.3.415.715.623 1.246.623.537 0 .949-.203 1.236-.608.291-.406.437-.998.437-1.777v-.361zm3.745 3.639v-6.917h2.392c.79 0 1.39.157 1.802.47.412.314.618.78.618 1.402 0 .316-.086.601-.258.855-.173.253-.425.45-.758.589.377.101.668.293.873.575.207.279.311.614.311 1.007 0 .65-.21 1.148-.632 1.497-.42.348-1.02.522-1.803.522h-2.545zm1.213-3.121v2.161h1.347c.38 0 .677-.093.891-.28.214-.187.321-.447.321-.78 0-.718-.37-1.085-1.112-1.101h-1.447zm0-.884h1.188c.378 0 .671-.084.882-.252.215-.17.322-.411.322-.722 0-.342-.1-.589-.298-.741-.194-.152-.5-.228-.915-.228h-1.18v1.943zm10.211 2.395h-2.703l-.566 1.61h-1.26l2.636-6.917h1.088l2.64 6.917h-1.264l-.57-1.61zm-2.363-.97h2.023l-1.011-2.87-1.012 2.87zm11.86 2.58h-1.207V30.98h-3.12v3.074h-1.213v-6.917h1.212v2.879h3.12v-2.88h1.208v6.918zm6.533 0v-6.917h2.391c.79 0 1.39.157 1.803.47.412.314.618.78.618 1.402 0 .316-.086.601-.259.855-.172.253-.425.45-.757.589.377.101.668.293.872.575.208.279.312.614.312 1.007 0 .65-.211 1.148-.633 1.497-.418.348-1.02.522-1.802.522h-2.545zm1.213-3.121v2.161h1.346c.38 0 .678-.093.892-.28.214-.187.32-.447.32-.78 0-.718-.37-1.085-1.111-1.101H89.6zm0-.884h1.188c.377 0 .671-.084.882-.252.214-.17.321-.411.321-.722 0-.342-.099-.589-.297-.741-.195-.152-.5-.228-.916-.228H89.6v1.943zm14.579 4.005h-4.692v-.793l2.325-2.514c.335-.37.573-.679.714-.926.144-.25.216-.5.216-.75 0-.33-.095-.596-.283-.799-.186-.202-.436-.304-.753-.304-.377 0-.669.114-.877.342-.208.228-.311.54-.311.936h-1.165c0-.421.096-.8.288-1.135.194-.34.471-.602.829-.789a2.67 2.67 0 011.246-.28c.677 0 1.211.17 1.601.508.393.336.589.802.589 1.397 0 .345-.099.708-.297 1.088-.195.377-.516.806-.963 1.287l-1.707 1.81h3.24v.922zm6.761-2.912c0 .994-.189 1.745-.566 2.252-.374.503-.944.755-1.711.755-.754 0-1.323-.245-1.706-.736-.38-.494-.575-1.224-.585-2.19v-1.198c0-.994.187-1.74.561-2.237.377-.498.95-.746 1.721-.746.763 0 1.332.242 1.706.727.377.484.57 1.21.58 2.176v1.197zm-1.165-1.292c0-.65-.089-1.125-.268-1.426-.179-.304-.464-.456-.853-.456-.381 0-.66.144-.839.433-.179.285-.273.731-.283 1.34v1.567c0 .646.091 1.128.273 1.444.182.317.468.475.858.475.374 0 .65-.145.829-.437.179-.294.273-.754.283-1.377V29.85zm8.069 1.292c0 .994-.189 1.745-.566 2.252-.374.503-.944.755-1.711.755-.754 0-1.323-.245-1.706-.736-.38-.494-.575-1.224-.585-2.19v-1.198c0-.994.187-1.74.561-2.237.377-.498.951-.746 1.721-.746.763 0 1.332.242 1.706.727.377.484.57 1.21.58 2.176v1.197zm-1.165-1.292c0-.65-.089-1.125-.268-1.426-.179-.304-.463-.456-.853-.456-.381 0-.66.144-.839.433-.179.285-.273.731-.283 1.34v1.567c0 .646.091 1.128.273 1.444.182.317.468.475.858.475.374 0 .651-.145.829-.437.179-.294.274-.754.283-1.377V29.85zm6.674 4.204h-1.16V28.5l-1.711.58v-.974l2.723-.993h.148v6.941zm12.169-5.948h-3.22v5.948h-1.208v-6.917h4.428v.969zm7.58 2.67c0 .678-.118 1.273-.354 1.786a2.68 2.68 0 01-1.016 1.178c-.438.273-.943.41-1.515.41a2.84 2.84 0 01-1.515-.41 2.741 2.741 0 01-1.025-1.173c-.24-.507-.361-1.091-.365-1.753v-.39c0-.674.12-1.27.36-1.786.243-.516.583-.91 1.021-1.183a2.798 2.798 0 011.514-.413c.569 0 1.072.136 1.51.408.441.27.781.66 1.021 1.17.24.506.361 1.096.364 1.771v.385zm-1.212-.361c0-.767-.147-1.354-.441-1.763-.291-.408-.705-.613-1.242-.613-.524 0-.934.205-1.231.613-.294.406-.445.98-.451 1.725v.399c0 .76.149 1.348.446 1.762.3.415.716.623 1.246.623.537 0 .949-.203 1.237-.608.29-.406.436-.998.436-1.777v-.361zm10 5.34h-1.15v-1.7h-4.597v1.7h-1.169l-.038-2.66h.56c.278-.267.5-.653.667-1.16a7.36 7.36 0 00.321-1.73l.182-3.068h4.4v5.957h.886l-.062 2.66zm-5.023-2.66h2.991v-4.989h-2.037l-.115 1.948c-.086 1.302-.366 2.315-.839 3.04zm9.833-2.343l1.399-3.615h1.347l-2.43 5.739-.22.432c-.32.564-.838.846-1.553.846l-.499-.029.01-.95c.076.013.212.02.407.02.345 0 .588-.147.729-.438l.249-.584-2.387-5.036h1.323l1.625 3.615z" fill="#C62306"/></svg>