<svg width="20" height="20" fill="none" xmlns="http://www.w3.org/2000/svg"><path fill-rule="evenodd" clip-rule="evenodd" d="M14.41 7.75C14.41 4.022 11.45 1 7.796 1S1.18 4.022 1.18 7.75s2.962 6.75 6.615 6.75c3.654 0 6.616-3.022 6.616-6.75zm-6.615 5.062c-2.736 0-4.961-2.27-4.961-5.062 0-2.792 2.225-5.062 4.961-5.062s4.962 2.27 4.962 5.062c0 2.792-2.226 5.062-4.962 5.062zm10.542 3.308l-4.048-4.13a7.872 7.872 0 01-2.339 2.386l4.048 4.13a1.63 1.63 0 002.339 0 1.71 1.71 0 000-2.387z" fill="#fff"/></svg>