<svg width="30" height="30" fill="none" xmlns="http://www.w3.org/2000/svg"><path d="M10.574 12.057c-.84.357-1.275 1.264-1.437 2.123-.145 1.037-.048 2.172.55 3.047.483.745 1.548 1.134 2.339.648.549-.308.904-.826 1.113-1.41.275-.826.275-2.236-.048-3.046a3.095 3.095 0 00-.283-.533 2.87 2.87 0 00-.41-.488c-.469-.47-1.227-.519-1.824-.34z" fill="#C62306"/><path fill-rule="evenodd" clip-rule="evenodd" d="M15 30c8.284 0 15-6.716 15-15 0-8.284-6.716-15-15-15C6.716 0 0 6.716 0 15c0 8.284 6.716 15 15 15zm2.8-18.413c0-.859.177-1.75.677-2.463 1.05-1.604 3.099-2.253 4.939-2.09.855.08.952 1.474.129 1.669-.872 0-1.872.194-2.357 1.004-.507.927-.479 1.97-.45 2.998.01.41.022.818-.001 1.216.265.013.53.01.794.008a9.011 9.011 0 011.19.04c.63.26.743 1.264.098 1.572-.43.158-.888.138-1.346.118a6.536 6.536 0 00-.736-.004c-.065 1.329.129 2.69-.194 3.987-.42 1.62-1.84 2.868-3.47 3.143l-.315.051c-.644.108-1.304.218-1.927-.018-.614-.373-.517-1.264.08-1.605l.177.001c.383.003.781.006 1.143-.103.185-.056.36-.14.52-.27.839-.713 1.065-1.88 1.049-2.934v-6.32zm-11.535-.794c-.355.39-.371.957-.371 1.443.006 1.257.003 2.512-.001 3.767-.006 1.882-.012 3.762.017 5.648.032 1.232 1.727 1.783 2.534.924.12-.139.213-.286.282-.44.118-.262.17-.545.17-.84v-1.961c2.242.94 5.18.437 6.696-1.572.904-1.264 1.13-2.998.55-4.457-.42-1.232-1.453-2.171-2.631-2.641-1.598-.632-3.405-.503-4.987.13-.548-.697-1.726-.73-2.26 0z" fill="#C62306"/></svg>