<svg width="30" height="30" fill="none" xmlns="http://www.w3.org/2000/svg"><path d="M15 18.003A3.008 3.008 0 0018.002 15a2.99 2.99 0 00-.567-1.75A3 3 0 0015 11.997a3.001 3.001 0 00-2.435 1.252 2.988 2.988 0 00-.568 1.75 3.005 3.005 0 003.001 3.004zm6.557-6.677V8.435l-2.893.009.01 2.892 2.883-.01z" fill="#C62306"/><path d="M15 0C6.729 0 0 6.729 0 15c0 8.27 6.729 15 15 15 8.27 0 15-6.73 15-15 0-8.271-6.728-15-15-15zm8.53 20.234a3.3 3.3 0 01-3.296 3.298H9.766a3.3 3.3 0 01-3.297-3.298V9.767A3.3 3.3 0 019.766 6.47h10.467a3.3 3.3 0 013.298 3.297v10.467z" fill="#C62306"/><path d="M19.666 15A4.672 4.672 0 0115 19.666 4.671 4.671 0 0110.334 15c0-.618.123-1.21.343-1.75H8.131v6.984c0 .903.733 1.634 1.635 1.634h10.466c.901 0 1.635-.73 1.635-1.634V13.25H19.32c.222.54.347 1.132.347 1.75z" fill="#C62306"/></svg>