<svg width="30" height="30" fill="none" xmlns="http://www.w3.org/2000/svg"><path d="M17.886 17.537a1.27 1.27 0 012.537 0 1.269 1.269 0 01-2.537 0zm-8.877 1.268a1.27 1.27 0 000 2.536 1.27 1.27 0 000-2.536z" fill="#C62306"/><path fill-rule="evenodd" clip-rule="evenodd" d="M15 30c8.284 0 15-6.716 15-15 0-8.284-6.716-15-15-15C6.716 0 0 6.716 0 15c0 8.284 6.716 15 15 15zm4.154-8.659a3.809 3.809 0 003.805-3.804V7.39c0-.831-.787-1.431-1.575-1.23L11.238 8.699a1.268 1.268 0 00-.961 1.23v6.574a3.963 3.963 0 00-.92-.215 3.358 3.358 0 00-.348-.018 3.809 3.809 0 00-3.805 3.804 3.809 3.809 0 003.805 3.805 3.809 3.809 0 003.804-3.805v-9.155l7.61-1.902v4.95a3.76 3.76 0 00-1.269-.234 3.809 3.809 0 00-3.804 3.805 3.809 3.809 0 003.804 3.804z" fill="#C62306"/></svg>