<svg width="30" height="30" fill="none" xmlns="http://www.w3.org/2000/svg"><path d="M14.941 0C6.703 0 0 6.703 0 14.941 0 23.181 6.703 30 14.941 30 23.181 30 30 23.18 30 14.941 30 6.703 23.18 0 14.941 0zm6.27 19.336a3.509 3.509 0 01-2.872-1.5c-.806.912-1.97 1.5-3.28 1.5a4.4 4.4 0 01-4.395-4.395 4.4 4.4 0 014.395-4.394c.993 0 1.9.343 2.636.901v-.022a.878.878 0 111.758 0v4.394a1.76 1.76 0 001.758 1.758 1.76 1.76 0 001.758-1.758c0-5.882-3.893-8.789-7.91-8.789-4.362 0-7.91 3.548-7.91 7.91s3.548 7.91 7.91 7.91c1.757 0 3.42-.563 4.808-1.628.927-.708 1.988.689 1.071 1.393a9.574 9.574 0 01-5.88 1.993c-5.33 0-9.667-4.337-9.667-9.668 0-5.33 4.337-9.668 9.668-9.668 4.857 0 9.668 3.583 9.668 10.547a3.52 3.52 0 01-3.516 3.516z" fill="#C62306"/><path d="M15.059 12.305a2.64 2.64 0 00-2.637 2.636 2.64 2.64 0 002.637 2.637 2.64 2.64 0 002.636-2.637 2.64 2.64 0 00-2.636-2.636z" fill="#C62306"/></svg>