<svg width="30" height="30" fill="none" xmlns="http://www.w3.org/2000/svg"><path d="M12.267 18.288L19 14.796c-2.258-1.178-4.489-2.341-6.733-3.513v7.005z" fill="#C62306"/><path d="M15 0C6.716 0 0 6.716 0 15c0 8.284 6.716 15 15 15 8.284 0 15-6.716 15-15 0-8.284-6.716-15-15-15zm10.22 20.007c-.26 1.126-1.18 1.957-2.29 2.08-2.626.294-5.284.296-7.93.294-2.648.002-5.306 0-7.933-.293-1.109-.124-2.03-.955-2.288-2.081-.37-1.605-.37-3.356-.37-5.007 0-1.652.005-3.403.374-5.007.259-1.126 1.18-1.957 2.288-2.081 2.627-.294 5.286-.295 7.933-.294 2.646-.001 5.304 0 7.93.294 1.11.124 2.031.955 2.29 2.081.37 1.604.366 3.355.366 5.007 0 1.651 0 3.403-.37 5.007z" fill="#C62306"/></svg>