<svg width="30" height="30" fill="none" xmlns="http://www.w3.org/2000/svg"><path d="M15 0C6.716 0 0 6.715 0 15c0 8.286 6.716 15 15 15 8.284 0 15-6.714 15-15 0-8.285-6.716-15-15-15zm7.855 12.315c.007.15.01.303.01.456 0 4.664-3.55 10.044-10.043 10.044a9.993 9.993 0 01-5.412-1.586c.277.033.558.049.843.049a7.084 7.084 0 004.383-1.51 3.533 3.533 0 01-3.296-2.45 3.568 3.568 0 001.592-.063 3.534 3.534 0 01-2.83-3.463v-.043c.477.264 1.02.422 1.6.441a3.528 3.528 0 01-1.57-2.94c0-.644.174-1.252.478-1.774a10.016 10.016 0 007.276 3.689A3.53 3.53 0 0121.9 9.946a7.143 7.143 0 002.242-.855 3.545 3.545 0 01-1.551 1.95 7.035 7.035 0 002.027-.554 7.191 7.191 0 01-1.763 1.828z" fill="#C62306"/></svg>