<svg width="30" height="30" fill="none" xmlns="http://www.w3.org/2000/svg"><path d="M15.014 12.432a2.568 2.568 0 002.568-2.592 2.573 2.573 0 00-2.581-2.58 2.577 2.577 0 00-2.588 2.612 2.574 2.574 0 002.601 2.56z" fill="#C62306"/><path d="M15 0C6.716 0 0 6.716 0 15c0 8.284 6.716 15 15 15 8.284 0 15-6.716 15-15 0-8.284-6.716-15-15-15zm.021 4.562c2.922.008 5.267 2.397 5.252 5.351-.014 2.886-2.398 5.225-5.315 5.215-2.887-.01-5.255-2.403-5.237-5.295a5.292 5.292 0 015.3-5.271zm5.918 12.642c-.646.663-1.424 1.143-2.287 1.478-.817.317-1.711.476-2.597.582.134.146.197.217.28.3 1.203 1.209 2.41 2.411 3.608 3.623.408.413.493.925.269 1.404-.246.525-.796.87-1.336.833-.342-.024-.608-.193-.845-.432-.907-.913-1.832-1.809-2.72-2.739-.26-.27-.383-.219-.612.016-.912.94-1.84 1.865-2.772 2.784-.42.413-.918.488-1.404.252-.516-.25-.845-.777-.82-1.308.018-.358.194-.632.44-.877 1.19-1.188 2.377-2.379 3.563-3.569.079-.079.152-.163.267-.285-1.619-.17-3.078-.568-4.328-1.545-.155-.121-.315-.238-.456-.375-.547-.525-.602-1.127-.17-1.746.37-.53.992-.672 1.638-.367.125.058.244.133.358.211 2.329 1.6 5.527 1.644 7.865.072a2.12 2.12 0 01.766-.396c.557-.144 1.078.062 1.376.55.343.557.339 1.101-.083 1.534z" fill="#C62306"/></svg>