<svg width="24" height="24" fill="none" xmlns="http://www.w3.org/2000/svg"><path d="M12 12.656c2.724 0 4.933-2.61 4.933-5.828C16.933 2.365 14.724 1 12 1 9.275 1 7.067 2.365 7.067 6.828c0 3.219 2.209 5.828 4.933 5.828zm10.892 8.578l-2.488-5.659a1.256 1.256 0 00-.563-.604l-3.862-2.03a.247.247 0 00-.265.023A6.081 6.081 0 0112 14.239a6.081 6.081 0 01-3.714-1.275.247.247 0 00-.265-.023l-3.862 2.03c-.25.13-.449.345-.563.604l-2.488 5.66c-.172.39-.137.836.094 1.194.23.358.62.571 1.043.571h19.51c.423 0 .813-.214 1.043-.571.23-.358.266-.805.094-1.195z" fill="#fff"/></svg>